<svg width="102" height="30" viewBox="0 0 102 30" fill="none" xmlns="http://www.w3.org/2000/svg">
<path d="M0.726562 22.0859H2.88281V5.98438H0.703125V5.07031H6.82031L12.1055 18.1133L17.3555 5.07031H23.2734V5.98438H20.9883V22.0859H23.4844V23H15.6914V22.0859H17.8242L17.8359 6.48828L11.3203 22.7539H10.8516L3.94922 6.40625V22.0859H6.07031V23H0.726562V22.0859ZM32.9883 21.6758C32.082 22.7148 30.8672 23.2344 29.3438 23.2344C28.1875 23.2344 27.1914 22.9141 26.3555 22.2734C25.5195 21.625 25.1016 20.7812 25.1016 19.7422C25.1016 18.6953 25.5117 17.875 26.332 17.2812C27.1523 16.6797 28.207 16.3789 29.4961 16.3789C30.793 16.3789 31.875 16.7031 32.7422 17.3516V14.5625C32.7422 13.6172 32.625 12.9766 32.3906 12.6406C32.1562 12.3047 31.8789 12.0703 31.5586 11.9375C31.2461 11.8047 30.8984 11.7383 30.5156 11.7383C29.9141 11.7383 29.4062 11.8086 28.9922 11.9492C28.5781 12.082 28.3008 12.2188 28.1602 12.3594C28.5195 12.4688 28.7969 12.7422 28.9922 13.1797C29.0547 13.3359 29.0859 13.5234 29.0859 13.7422C29.0859 14.1719 28.9297 14.5312 28.6172 14.8203C28.3047 15.1016 27.9922 15.2422 27.6797 15.2422C27.1328 15.2422 26.707 15.0977 26.4023 14.8086C26.0977 14.5195 25.9453 14.1719 25.9453 13.7656C25.9453 13.3594 26.0195 13.0273 26.168 12.7695C26.3164 12.5039 26.5156 12.2656 26.7656 12.0547C27.2422 11.6562 27.8398 11.3516 28.5586 11.1406C29.2852 10.9297 29.9648 10.8242 30.5977 10.8242C32.3555 10.8242 33.6562 11.1797 34.5 11.8906C35.3438 12.6016 35.7656 13.5938 35.7656 14.8672V21.1133C35.7656 21.7617 35.9258 22.0859 36.2461 22.0859C36.5664 22.0859 36.875 21.8906 37.1719 21.5L37.7812 22.0039C37.25 22.8086 36.3828 23.2109 35.1797 23.2109C34.7578 23.2109 34.3281 23.0781 33.8906 22.8125C33.4609 22.5469 33.1602 22.168 32.9883 21.6758ZM32.7773 18.3945C32.1133 17.7461 31.3867 17.4219 30.5977 17.4219C29.8086 17.4219 29.2148 17.6094 28.8164 17.9844C28.418 18.3516 28.2188 18.9453 28.2188 19.7656C28.2188 20.9766 28.6445 21.7109 29.4961 21.9688C29.7383 22.0469 29.9844 22.0859 30.2344 22.0859C30.9453 22.0859 31.625 21.8125 32.2734 21.2656C32.4609 21.1016 32.6289 20.9258 32.7773 20.7383V18.3945ZM39.1289 26.7617C39.3398 26.5508 39.5391 26.4023 39.7266 26.3164C39.9219 26.2383 40.1992 26.1992 40.5586 26.1992C40.9258 26.1992 41.2383 26.3359 41.4961 26.6094C41.7617 26.8906 41.8945 27.1953 41.8945 27.5234C41.8945 27.8516 41.7969 28.1484 41.6016 28.4141C41.8984 28.3672 42.1992 28.1367 42.5039 27.7227C42.8086 27.3164 43.168 26.6875 43.582 25.8359L44.6602 23.2344L39.2461 11.9258H37.9922V11.0117H44.3086V11.9258H42.6797L46.2188 19.9648L49.3828 11.9258H47.332V11.0117H51.7266V11.9258H50.5312L45.8906 23.2344L44.4727 26.4219C43.918 27.5234 43.4453 28.2578 43.0547 28.625C42.6719 28.9922 42.3242 29.2383 42.0117 29.3633C41.6992 29.4961 41.375 29.5625 41.0391 29.5625C40.4062 29.5625 39.8789 29.3867 39.457 29.0352C39.0352 28.6914 38.8242 28.2812 38.8242 27.8047C38.8242 27.3281 38.9258 26.9805 39.1289 26.7617Z" fill="#AF8B70"/>
<path d="M53.9727 22.0859H56.3164L56.3281 5.98438H53.9727V5.07031H61.8711C66.582 5.07031 69.6289 6.55859 71.0117 9.53516C71.582 10.7617 71.8672 12.2148 71.8672 13.8945C71.8672 16.1289 71.2188 18.0781 69.9219 19.7422C68.875 21.0781 67.3555 22.0195 65.3633 22.5664C64.3164 22.8555 63.0977 23 61.707 23H53.9727V22.0859ZM61.5664 22.0859C64.0273 22.0859 65.7891 21.4727 66.8516 20.2461C67.9141 19.0195 68.4453 16.9297 68.4453 13.9766V13.6133C68.3984 10.7852 67.8281 8.80859 66.7344 7.68359C65.6484 6.55078 63.9766 5.98438 61.7188 5.98438H59.4805V22.0859H61.5664ZM81.9805 21.6758C81.0742 22.7148 79.8594 23.2344 78.3359 23.2344C77.1797 23.2344 76.1836 22.9141 75.3477 22.2734C74.5117 21.625 74.0938 20.7812 74.0938 19.7422C74.0938 18.6953 74.5039 17.875 75.3242 17.2812C76.1445 16.6797 77.1992 16.3789 78.4883 16.3789C79.7852 16.3789 80.8672 16.7031 81.7344 17.3516V14.5625C81.7344 13.6172 81.6172 12.9766 81.3828 12.6406C81.1484 12.3047 80.8711 12.0703 80.5508 11.9375C80.2383 11.8047 79.8906 11.7383 79.5078 11.7383C78.9062 11.7383 78.3984 11.8086 77.9844 11.9492C77.5703 12.082 77.293 12.2188 77.1523 12.3594C77.5117 12.4688 77.7891 12.7422 77.9844 13.1797C78.0469 13.3359 78.0781 13.5234 78.0781 13.7422C78.0781 14.1719 77.9219 14.5312 77.6094 14.8203C77.2969 15.1016 76.9844 15.2422 76.6719 15.2422C76.125 15.2422 75.6992 15.0977 75.3945 14.8086C75.0898 14.5195 74.9375 14.1719 74.9375 13.7656C74.9375 13.3594 75.0117 13.0273 75.1602 12.7695C75.3086 12.5039 75.5078 12.2656 75.7578 12.0547C76.2344 11.6562 76.832 11.3516 77.5508 11.1406C78.2773 10.9297 78.957 10.8242 79.5898 10.8242C81.3477 10.8242 82.6484 11.1797 83.4922 11.8906C84.3359 12.6016 84.7578 13.5938 84.7578 14.8672V21.1133C84.7578 21.7617 84.918 22.0859 85.2383 22.0859C85.5586 22.0859 85.8672 21.8906 86.1641 21.5L86.7734 22.0039C86.2422 22.8086 85.375 23.2109 84.1719 23.2109C83.75 23.2109 83.3203 23.0781 82.8828 22.8125C82.4531 22.5469 82.1523 22.168 81.9805 21.6758ZM81.7695 18.3945C81.1055 17.7461 80.3789 17.4219 79.5898 17.4219C78.8008 17.4219 78.207 17.6094 77.8086 17.9844C77.4102 18.3516 77.2109 18.9453 77.2109 19.7656C77.2109 20.9766 77.6367 21.7109 78.4883 21.9688C78.7305 22.0469 78.9766 22.0859 79.2266 22.0859C79.9375 22.0859 80.6172 21.8125 81.2656 21.2656C81.4531 21.1016 81.6211 20.9258 81.7695 20.7383V18.3945ZM88.1211 26.7617C88.332 26.5508 88.5312 26.4023 88.7188 26.3164C88.9141 26.2383 89.1914 26.1992 89.5508 26.1992C89.918 26.1992 90.2305 26.3359 90.4883 26.6094C90.7539 26.8906 90.8867 27.1953 90.8867 27.5234C90.8867 27.8516 90.7891 28.1484 90.5938 28.4141C90.8906 28.3672 91.1914 28.1367 91.4961 27.7227C91.8008 27.3164 92.1602 26.6875 92.5742 25.8359L93.6523 23.2344L88.2383 11.9258H86.9844V11.0117H93.3008V11.9258H91.6719L95.2109 19.9648L98.375 11.9258H96.3242V11.0117H100.719V11.9258H99.5234L94.8828 23.2344L93.4648 26.4219C92.9102 27.5234 92.4375 28.2578 92.0469 28.625C91.6641 28.9922 91.3164 29.2383 91.0039 29.3633C90.6914 29.4961 90.3672 29.5625 90.0312 29.5625C89.3984 29.5625 88.8711 29.3867 88.4492 29.0352C88.0273 28.6914 87.8164 28.2812 87.8164 27.8047C87.8164 27.3281 87.918 26.9805 88.1211 26.7617Z" fill="#CEB19C"/>
</svg>
