<svg width="53" height="50" viewBox="0 0 53 50" fill="none" xmlns="http://www.w3.org/2000/svg">
<path d="M0.726562 22.0859H2.88281V5.98438H0.703125V5.07031H6.82031L12.1055 18.1133L17.3555 5.07031H23.2734V5.98438H20.9883V22.0859H23.4844V23H15.6914V22.0859H17.8242L17.8359 6.48828L11.3203 22.7539H10.8516L3.94922 6.40625V22.0859H6.07031V23H0.726562V22.0859Z" fill="#AF8B70"/>
<path d="M32.9883 21.6758C32.082 22.7148 30.8672 23.2344 29.3438 23.2344C28.1875 23.2344 27.1914 22.9141 26.3555 22.2734C25.5195 21.625 25.1016 20.7812 25.1016 19.7422C25.1016 18.6953 25.5117 17.875 26.332 17.2812C27.1523 16.6797 28.207 16.3789 29.4961 16.3789C30.793 16.3789 31.875 16.7031 32.7422 17.3516V14.5625C32.7422 13.6172 32.625 12.9766 32.3906 12.6406C32.1562 12.3047 31.8789 12.0703 31.5586 11.9375C31.2461 11.8047 30.8984 11.7383 30.5156 11.7383C29.9141 11.7383 29.4062 11.8086 28.9922 11.9492C28.5781 12.082 28.3008 12.2188 28.1602 12.3594C28.5195 12.4688 28.7969 12.7422 28.9922 13.1797C29.0547 13.3359 29.0859 13.5234 29.0859 13.7422C29.0859 14.1719 28.9297 14.5312 28.6172 14.8203C28.3047 15.1016 27.9922 15.2422 27.6797 15.2422C27.1328 15.2422 26.707 15.0977 26.4023 14.8086C26.0977 14.5195 25.9453 14.1719 25.9453 13.7656C25.9453 13.3594 26.0195 13.0273 26.168 12.7695C26.3164 12.5039 26.5156 12.2656 26.7656 12.0547C27.2422 11.6562 27.8398 11.3516 28.5586 11.1406C29.2852 10.9297 29.9648 10.8242 30.5977 10.8242C32.3555 10.8242 33.6562 11.1797 34.5 11.8906C35.3438 12.6016 35.7656 13.5938 35.7656 14.8672V21.1133C35.7656 21.7617 35.9258 22.0859 36.2461 22.0859C36.5664 22.0859 36.875 21.8906 37.1719 21.5L37.7812 22.0039C37.25 22.8086 36.3828 23.2109 35.1797 23.2109C34.7578 23.2109 34.3281 23.0781 33.8906 22.8125C33.4609 22.5469 33.1602 22.168 32.9883 21.6758ZM32.7773 18.3945C32.1133 17.7461 31.3867 17.4219 30.5977 17.4219C29.8086 17.4219 29.2148 17.6094 28.8164 17.9844C28.418 18.3516 28.2188 18.9453 28.2188 19.7656C28.2188 20.9766 28.6445 21.7109 29.4961 21.9688C29.7383 22.0469 29.9844 22.0859 30.2344 22.0859C30.9453 22.0859 31.625 21.8125 32.2734 21.2656C32.4609 21.1016 32.6289 20.9258 32.7773 20.7383V18.3945Z" fill="#AF8B70"/>
<path d="M39.1289 26.7617C39.3398 26.5508 39.5391 26.4023 39.7266 26.3164C39.9219 26.2383 40.1992 26.1992 40.5586 26.1992C40.9258 26.1992 41.2383 26.3359 41.4961 26.6094C41.7617 26.8906 41.8945 27.1953 41.8945 27.5234C41.8945 27.8516 41.7969 28.1484 41.6016 28.4141C41.8984 28.3672 42.1992 28.1367 42.5039 27.7227C42.8086 27.3164 43.168 26.6875 43.582 25.8359L44.6602 23.2344L39.2461 11.9258H37.9922V11.0117H44.3086V11.9258H42.6797L46.2188 19.9648L49.3828 11.9258H47.332V11.0117H51.7266V11.9258H50.5312L45.8906 23.2344L44.4727 26.4219C43.918 27.5234 43.4453 28.2578 43.0547 28.625C42.6719 28.9922 42.3242 29.2383 42.0117 29.3633C41.6992 29.4961 41.375 29.5625 41.0391 29.5625C40.4062 29.5625 39.8789 29.3867 39.457 29.0352C39.0352 28.6914 38.8242 28.2812 38.8242 27.8047C38.8242 27.3281 38.9258 26.9805 39.1289 26.7617Z" fill="#AF8B70"/>
<path d="M0.972656 42.0859H3.31641L3.32812 25.9844H0.972656V25.0703H8.87109C13.582 25.0703 16.6289 26.5586 18.0117 29.5352C18.582 30.7617 18.8672 32.2148 18.8672 33.8945C18.8672 36.1289 18.2188 38.0781 16.9219 39.7422C15.875 41.0781 14.3555 42.0195 12.3633 42.5664C11.3164 42.8555 10.0977 43 8.70703 43H0.972656V42.0859ZM8.56641 42.0859C11.0273 42.0859 12.7891 41.4727 13.8516 40.2461C14.9141 39.0195 15.4453 36.9297 15.4453 33.9766V33.6133C15.3984 30.7852 14.8281 28.8086 13.7344 27.6836C12.6484 26.5508 10.9766 25.9844 8.71875 25.9844H6.48047V42.0859H8.56641Z" fill="#CEB19C"/>
<path d="M28.9805 41.6758C28.0742 42.7148 26.8594 43.2344 25.3359 43.2344C24.1797 43.2344 23.1836 42.9141 22.3477 42.2734C21.5117 41.625 21.0938 40.7812 21.0938 39.7422C21.0938 38.6953 21.5039 37.875 22.3242 37.2812C23.1445 36.6797 24.1992 36.3789 25.4883 36.3789C26.7852 36.3789 27.8672 36.7031 28.7344 37.3516V34.5625C28.7344 33.6172 28.6172 32.9766 28.3828 32.6406C28.1484 32.3047 27.8711 32.0703 27.5508 31.9375C27.2383 31.8047 26.8906 31.7383 26.5078 31.7383C25.9062 31.7383 25.3984 31.8086 24.9844 31.9492C24.5703 32.082 24.293 32.2188 24.1523 32.3594C24.5117 32.4688 24.7891 32.7422 24.9844 33.1797C25.0469 33.3359 25.0781 33.5234 25.0781 33.7422C25.0781 34.1719 24.9219 34.5312 24.6094 34.8203C24.2969 35.1016 23.9844 35.2422 23.6719 35.2422C23.125 35.2422 22.6992 35.0977 22.3945 34.8086C22.0898 34.5195 21.9375 34.1719 21.9375 33.7656C21.9375 33.3594 22.0117 33.0273 22.1602 32.7695C22.3086 32.5039 22.5078 32.2656 22.7578 32.0547C23.2344 31.6562 23.832 31.3516 24.5508 31.1406C25.2773 30.9297 25.957 30.8242 26.5898 30.8242C28.3477 30.8242 29.6484 31.1797 30.4922 31.8906C31.3359 32.6016 31.7578 33.5938 31.7578 34.8672V41.1133C31.7578 41.7617 31.918 42.0859 32.2383 42.0859C32.5586 42.0859 32.8672 41.8906 33.1641 41.5L33.7734 42.0039C33.2422 42.8086 32.375 43.2109 31.1719 43.2109C30.75 43.2109 30.3203 43.0781 29.8828 42.8125C29.4531 42.5469 29.1523 42.168 28.9805 41.6758ZM28.7695 38.3945C28.1055 37.7461 27.3789 37.4219 26.5898 37.4219C25.8008 37.4219 25.207 37.6094 24.8086 37.9844C24.4102 38.3516 24.2109 38.9453 24.2109 39.7656C24.2109 40.9766 24.6367 41.7109 25.4883 41.9688C25.7305 42.0469 25.9766 42.0859 26.2266 42.0859C26.9375 42.0859 27.6172 41.8125 28.2656 41.2656C28.4531 41.1016 28.6211 40.9258 28.7695 40.7383V38.3945Z" fill="#CEB19C"/>
<path d="M35.1211 46.7617C35.332 46.5508 35.5312 46.4023 35.7188 46.3164C35.9141 46.2383 36.1914 46.1992 36.5508 46.1992C36.918 46.1992 37.2305 46.3359 37.4883 46.6094C37.7539 46.8906 37.8867 47.1953 37.8867 47.5234C37.8867 47.8516 37.7891 48.1484 37.5938 48.4141C37.8906 48.3672 38.1914 48.1367 38.4961 47.7227C38.8008 47.3164 39.1602 46.6875 39.5742 45.8359L40.6523 43.2344L35.2383 31.9258H33.9844V31.0117H40.3008V31.9258H38.6719L42.2109 39.9648L45.375 31.9258H43.3242V31.0117H47.7188V31.9258H46.5234L41.8828 43.2344L40.4648 46.4219C39.9102 47.5234 39.4375 48.2578 39.0469 48.625C38.6641 48.9922 38.3164 49.2383 38.0039 49.3633C37.6914 49.4961 37.3672 49.5625 37.0312 49.5625C36.3984 49.5625 35.8711 49.3867 35.4492 49.0352C35.0273 48.6914 34.8164 48.2812 34.8164 47.8047C34.8164 47.3281 34.918 46.9805 35.1211 46.7617Z" fill="#CEB19C"/>
</svg>
