<?xml version="1.0" encoding="UTF-8" standalone="no"?><svg xmlns="http://www.w3.org/2000/svg" xmlns:xlink="http://www.w3.org/1999/xlink" contentStyleType="text/css" height="555px" preserveAspectRatio="none" style="width:1276px;height:555px;background:#FFFFFF;" version="1.1" viewBox="0 0 1276 555" width="1276px" zoomAndPan="magnify"><defs/><g><!--MD5=[4523f918a499262345e8d765b0fe948b]
cluster Order--><g id="cluster_Order"><path d="M174,122 L220,122 A3.75,3.75 0 0 1 222.5,124.5 L229.5,144.2969 L657,144.2969 A2.5,2.5 0 0 1 659.5,146.7969 L659.5,291.5 A2.5,2.5 0 0 1 657,294 L174,294 A2.5,2.5 0 0 1 171.5,291.5 L171.5,124.5 A2.5,2.5 0 0 1 174,122 " style="stroke:#000000;stroke-width:1.5;fill:none;"/><line style="stroke:#000000;stroke-width:1.5;fill:none;" x1="171.5" x2="229.5" y1="144.2969" y2="144.2969"/><text fill="#000000" font-family="sans-serif" font-size="14" font-weight="bold" lengthAdjust="spacing" textLength="45" x="175.5" y="136.9951">Order</text></g><!--MD5=[6016b8b8de4bd4034d18b8326cdd4d66]
cluster Review--><g id="cluster_Review"><path d="M686,138 L743,138 A3.75,3.75 0 0 1 745.5,140.5 L752.5,160.2969 L1127,160.2969 A2.5,2.5 0 0 1 1129.5,162.7969 L1129.5,275.5 A2.5,2.5 0 0 1 1127,278 L686,278 A2.5,2.5 0 0 1 683.5,275.5 L683.5,140.5 A2.5,2.5 0 0 1 686,138 " style="stroke:#000000;stroke-width:1.5;fill:none;"/><line style="stroke:#000000;stroke-width:1.5;fill:none;" x1="683.5" x2="752.5" y1="160.2969" y2="160.2969"/><text fill="#000000" font-family="sans-serif" font-size="14" font-weight="bold" lengthAdjust="spacing" textLength="56" x="687.5" y="152.9951">Review</text></g><!--MD5=[4c9d4c7555ce8a8bca33920e62292556]
cluster Prisma--><g id="cluster_Prisma"><path d="M569,343 L626,343 A3.75,3.75 0 0 1 628.5,345.5 L635.5,365.2969 L863,365.2969 A2.5,2.5 0 0 1 865.5,367.7969 L865.5,545.5 A2.5,2.5 0 0 1 863,548 L569,548 A2.5,2.5 0 0 1 566.5,545.5 L566.5,345.5 A2.5,2.5 0 0 1 569,343 " style="stroke:#000000;stroke-width:1.5;fill:none;"/><line style="stroke:#000000;stroke-width:1.5;fill:none;" x1="566.5" x2="635.5" y1="365.2969" y2="365.2969"/><text fill="#000000" font-family="sans-serif" font-size="14" font-weight="bold" lengthAdjust="spacing" textLength="56" x="570.5" y="357.9951">Prisma</text></g><!--MD5=[ee5ac047e5d25310242750eedee800ea]
class Order.OrderQueries--><g id="elem_Order.OrderQueries"><rect codeLine="2" fill="#F1F1F1" height="121.4531" id="Order.OrderQueries" rx="2.5" ry="2.5" style="stroke:#181818;stroke-width:0.5;" width="201" x="188" y="157"/><ellipse cx="236.75" cy="177.1328" fill="#ADD1B2" rx="11" ry="11" style="stroke:#181818;stroke-width:1.0;"/><path d="M239.0938,172.8047 C238.1563,172.3672 237.5625,172.2266 236.6875,172.2266 C234.0625,172.2266 232.0625,174.3047 232.0625,177.0234 L232.0625,178.1484 C232.0625,180.7266 234.1719,182.6172 237.0625,182.6172 C238.2813,182.6172 239.4375,182.3203 240.1875,181.7734 C240.7656,181.3672 241.0938,180.9141 241.0938,180.5234 C241.0938,180.0703 240.7031,179.6797 240.2344,179.6797 C240.0156,179.6797 239.8125,179.7578 239.625,179.9453 C239.1719,180.4297 239.1719,180.4297 238.9844,180.5234 C238.5625,180.7891 237.875,180.9141 237.1094,180.9141 C235.0625,180.9141 233.7656,179.8203 233.7656,178.1172 L233.7656,177.0234 C233.7656,175.2422 235.0156,173.9297 236.75,173.9297 C237.3281,173.9297 237.9375,174.0859 238.4063,174.3359 C238.8906,174.6172 239.0625,174.8359 239.1563,175.2422 C239.2188,175.6484 239.25,175.7734 239.3906,175.8984 C239.5313,176.0391 239.7656,176.1484 239.9844,176.1484 C240.25,176.1484 240.5156,176.0078 240.6875,175.7891 C240.7969,175.6328 240.8281,175.4453 240.8281,175.0234 L240.8281,173.6016 C240.8281,173.1641 240.8125,173.0391 240.7188,172.8828 C240.5625,172.6172 240.2813,172.4766 239.9844,172.4766 C239.6875,172.4766 239.4844,172.5703 239.2656,172.8828 L239.0938,172.8047 Z " fill="#000000"/><text fill="#000000" font-family="sans-serif" font-size="12" font-style="italic" lengthAdjust="spacing" textLength="72" x="268.75" y="173.1387">«Controller»</text><text fill="#000000" font-family="sans-serif" font-size="14" lengthAdjust="spacing" textLength="95" x="257.25" y="188.9639">OrderQueries</text><line style="stroke:#181818;stroke-width:0.5;" x1="189" x2="388" y1="197.2656" y2="197.2656"/><line style="stroke:#181818;stroke-width:0.5;" x1="189" x2="388" y1="205.2656" y2="205.2656"/><ellipse cx="199" cy="216.2656" fill="#84BE84" rx="3" ry="3" style="stroke:#038048;stroke-width:1.0;"/><text fill="#000000" font-family="sans-serif" font-size="14" lengthAdjust="spacing" textLength="154" x="208" y="222.2607">int countSoldOrders()</text><ellipse cx="199" cy="232.5625" fill="#84BE84" rx="3" ry="3" style="stroke:#038048;stroke-width:1.0;"/><text fill="#000000" font-family="sans-serif" font-size="14" lengthAdjust="spacing" textLength="121" x="208" y="238.5576">Order getOrder()</text><ellipse cx="199" cy="248.8594" fill="#84BE84" rx="3" ry="3" style="stroke:#038048;stroke-width:1.0;"/><text fill="#000000" font-family="sans-serif" font-size="14" lengthAdjust="spacing" textLength="138" x="208" y="254.8545">Order[] getOrders()</text><ellipse cx="199" cy="265.1563" fill="#84BE84" rx="3" ry="3" style="stroke:#038048;stroke-width:1.0;"/><text fill="#000000" font-family="sans-serif" font-size="14" lengthAdjust="spacing" textLength="175" x="208" y="271.1514">Order[] getShopOrders()</text></g><!--MD5=[d6cadcaf092f59acb63d49d011c829c9]
class Order.OrderMutations--><g id="elem_Order.OrderMutations"><rect codeLine="9" fill="#F1F1F1" height="72.5625" id="Order.OrderMutations" rx="2.5" ry="2.5" style="stroke:#181818;stroke-width:0.5;" width="219" x="424" y="181"/><ellipse cx="473.25" cy="201.1328" fill="#ADD1B2" rx="11" ry="11" style="stroke:#181818;stroke-width:1.0;"/><path d="M475.5938,196.8047 C474.6563,196.3672 474.0625,196.2266 473.1875,196.2266 C470.5625,196.2266 468.5625,198.3047 468.5625,201.0234 L468.5625,202.1484 C468.5625,204.7266 470.6719,206.6172 473.5625,206.6172 C474.7813,206.6172 475.9375,206.3203 476.6875,205.7734 C477.2656,205.3672 477.5938,204.9141 477.5938,204.5234 C477.5938,204.0703 477.2031,203.6797 476.7344,203.6797 C476.5156,203.6797 476.3125,203.7578 476.125,203.9453 C475.6719,204.4297 475.6719,204.4297 475.4844,204.5234 C475.0625,204.7891 474.375,204.9141 473.6094,204.9141 C471.5625,204.9141 470.2656,203.8203 470.2656,202.1172 L470.2656,201.0234 C470.2656,199.2422 471.5156,197.9297 473.25,197.9297 C473.8281,197.9297 474.4375,198.0859 474.9063,198.3359 C475.3906,198.6172 475.5625,198.8359 475.6563,199.2422 C475.7188,199.6484 475.75,199.7734 475.8906,199.8984 C476.0313,200.0391 476.2656,200.1484 476.4844,200.1484 C476.75,200.1484 477.0156,200.0078 477.1875,199.7891 C477.2969,199.6328 477.3281,199.4453 477.3281,199.0234 L477.3281,197.6016 C477.3281,197.1641 477.3125,197.0391 477.2188,196.8828 C477.0625,196.6172 476.7813,196.4766 476.4844,196.4766 C476.1875,196.4766 475.9844,196.5703 475.7656,196.8828 L475.5938,196.8047 Z " fill="#000000"/><text fill="#000000" font-family="sans-serif" font-size="12" font-style="italic" lengthAdjust="spacing" textLength="72" x="513.75" y="197.1387">«Controller»</text><text fill="#000000" font-family="sans-serif" font-size="14" lengthAdjust="spacing" textLength="112" x="493.75" y="212.9639">OrderMutations</text><line style="stroke:#181818;stroke-width:0.5;" x1="425" x2="642" y1="221.2656" y2="221.2656"/><line style="stroke:#181818;stroke-width:0.5;" x1="425" x2="642" y1="229.2656" y2="229.2656"/><ellipse cx="435" cy="240.2656" fill="#84BE84" rx="3" ry="3" style="stroke:#038048;stroke-width:1.0;"/><text fill="#000000" font-family="sans-serif" font-size="14" lengthAdjust="spacing" textLength="193" x="444" y="246.2607">Order updateOrderStatus()</text></g><!--MD5=[3f35574efa1b6bb62e5c7f4d1db32999]
class Review.ReviewQueries--><g id="elem_Review.ReviewQueries"><rect codeLine="16" fill="#F1F1F1" height="88.8594" id="Review.ReviewQueries" rx="2.5" ry="2.5" style="stroke:#181818;stroke-width:0.5;" width="199" x="914" y="173"/><ellipse cx="956.9" cy="193.1328" fill="#ADD1B2" rx="11" ry="11" style="stroke:#181818;stroke-width:1.0;"/><path d="M959.2438,188.8047 C958.3063,188.3672 957.7125,188.2266 956.8375,188.2266 C954.2125,188.2266 952.2125,190.3047 952.2125,193.0234 L952.2125,194.1484 C952.2125,196.7266 954.3219,198.6172 957.2125,198.6172 C958.4313,198.6172 959.5875,198.3203 960.3375,197.7734 C960.9156,197.3672 961.2438,196.9141 961.2438,196.5234 C961.2438,196.0703 960.8531,195.6797 960.3844,195.6797 C960.1656,195.6797 959.9625,195.7578 959.775,195.9453 C959.3219,196.4297 959.3219,196.4297 959.1344,196.5234 C958.7125,196.7891 958.025,196.9141 957.2594,196.9141 C955.2125,196.9141 953.9156,195.8203 953.9156,194.1172 L953.9156,193.0234 C953.9156,191.2422 955.1656,189.9297 956.9,189.9297 C957.4781,189.9297 958.0875,190.0859 958.5563,190.3359 C959.0406,190.6172 959.2125,190.8359 959.3063,191.2422 C959.3688,191.6484 959.4,191.7734 959.5406,191.8984 C959.6813,192.0391 959.9156,192.1484 960.1344,192.1484 C960.4,192.1484 960.6656,192.0078 960.8375,191.7891 C960.9469,191.6328 960.9781,191.4453 960.9781,191.0234 L960.9781,189.6016 C960.9781,189.1641 960.9625,189.0391 960.8688,188.8828 C960.7125,188.6172 960.4313,188.4766 960.1344,188.4766 C959.8375,188.4766 959.6344,188.5703 959.4156,188.8828 L959.2438,188.8047 Z " fill="#000000"/><text fill="#000000" font-family="sans-serif" font-size="12" font-style="italic" lengthAdjust="spacing" textLength="72" x="993.6" y="189.1387">«Controller»</text><text fill="#000000" font-family="sans-serif" font-size="14" lengthAdjust="spacing" textLength="105" x="977.1" y="204.9639">ReviewQueries</text><line style="stroke:#181818;stroke-width:0.5;" x1="915" x2="1112" y1="213.2656" y2="213.2656"/><line style="stroke:#181818;stroke-width:0.5;" x1="915" x2="1112" y1="221.2656" y2="221.2656"/><ellipse cx="925" cy="232.2656" fill="#84BE84" rx="3" ry="3" style="stroke:#038048;stroke-width:1.0;"/><text fill="#000000" font-family="sans-serif" font-size="14" lengthAdjust="spacing" textLength="173" x="934" y="238.2607">(double, int) getRating()</text><ellipse cx="925" cy="248.5625" fill="#84BE84" rx="3" ry="3" style="stroke:#038048;stroke-width:1.0;"/><text fill="#000000" font-family="sans-serif" font-size="14" lengthAdjust="spacing" textLength="158" x="934" y="254.5576">Review[] getReviews()</text></g><!--MD5=[b31decad8869bd762a4b9b75b4cd4202]
class Review.ReviewMutations--><g id="elem_Review.ReviewMutations"><rect codeLine="21" fill="#F1F1F1" height="72.5625" id="Review.ReviewMutations" rx="2.5" ry="2.5" style="stroke:#181818;stroke-width:0.5;" width="179" x="700" y="181"/><ellipse cx="726.25" cy="201.1328" fill="#ADD1B2" rx="11" ry="11" style="stroke:#181818;stroke-width:1.0;"/><path d="M728.5938,196.8047 C727.6563,196.3672 727.0625,196.2266 726.1875,196.2266 C723.5625,196.2266 721.5625,198.3047 721.5625,201.0234 L721.5625,202.1484 C721.5625,204.7266 723.6719,206.6172 726.5625,206.6172 C727.7813,206.6172 728.9375,206.3203 729.6875,205.7734 C730.2656,205.3672 730.5938,204.9141 730.5938,204.5234 C730.5938,204.0703 730.2031,203.6797 729.7344,203.6797 C729.5156,203.6797 729.3125,203.7578 729.125,203.9453 C728.6719,204.4297 728.6719,204.4297 728.4844,204.5234 C728.0625,204.7891 727.375,204.9141 726.6094,204.9141 C724.5625,204.9141 723.2656,203.8203 723.2656,202.1172 L723.2656,201.0234 C723.2656,199.2422 724.5156,197.9297 726.25,197.9297 C726.8281,197.9297 727.4375,198.0859 727.9063,198.3359 C728.3906,198.6172 728.5625,198.8359 728.6563,199.2422 C728.7188,199.6484 728.75,199.7734 728.8906,199.8984 C729.0313,200.0391 729.2656,200.1484 729.4844,200.1484 C729.75,200.1484 730.0156,200.0078 730.1875,199.7891 C730.2969,199.6328 730.3281,199.4453 730.3281,199.0234 L730.3281,197.6016 C730.3281,197.1641 730.3125,197.0391 730.2188,196.8828 C730.0625,196.6172 729.7813,196.4766 729.4844,196.4766 C729.1875,196.4766 728.9844,196.5703 728.7656,196.8828 L728.5938,196.8047 Z " fill="#000000"/><text fill="#000000" font-family="sans-serif" font-size="12" font-style="italic" lengthAdjust="spacing" textLength="72" x="767.75" y="197.1387">«Controller»</text><text fill="#000000" font-family="sans-serif" font-size="14" lengthAdjust="spacing" textLength="122" x="742.75" y="212.9639">ReviewMutations</text><line style="stroke:#181818;stroke-width:0.5;" x1="701" x2="878" y1="221.2656" y2="221.2656"/><line style="stroke:#181818;stroke-width:0.5;" x1="701" x2="878" y1="229.2656" y2="229.2656"/><ellipse cx="711" cy="240.2656" fill="#84BE84" rx="3" ry="3" style="stroke:#038048;stroke-width:1.0;"/><text fill="#000000" font-family="sans-serif" font-size="14" lengthAdjust="spacing" textLength="153" x="720" y="246.2607">Review writeReview()</text></g><!--MD5=[3d09ba2c62c69a66d53a6d0b04bc1cd1]
class Prisma.Order--><g id="elem_Prisma.Order"><rect codeLine="28" fill="#F1F1F1" height="154.0469" id="Prisma.Order" rx="2.5" ry="2.5" style="stroke:#181818;stroke-width:0.5;" width="112" x="582.5" y="378"/><ellipse cx="600.65" cy="398.1328" fill="#ADD1B2" rx="11" ry="11" style="stroke:#181818;stroke-width:1.0;"/><path d="M602.9938,393.8047 C602.0563,393.3672 601.4625,393.2266 600.5875,393.2266 C597.9625,393.2266 595.9625,395.3047 595.9625,398.0234 L595.9625,399.1484 C595.9625,401.7266 598.0719,403.6172 600.9625,403.6172 C602.1813,403.6172 603.3375,403.3203 604.0875,402.7734 C604.6656,402.3672 604.9938,401.9141 604.9938,401.5234 C604.9938,401.0703 604.6031,400.6797 604.1344,400.6797 C603.9156,400.6797 603.7125,400.7578 603.525,400.9453 C603.0719,401.4297 603.0719,401.4297 602.8844,401.5234 C602.4625,401.7891 601.775,401.9141 601.0094,401.9141 C598.9625,401.9141 597.6656,400.8203 597.6656,399.1172 L597.6656,398.0234 C597.6656,396.2422 598.9156,394.9297 600.65,394.9297 C601.2281,394.9297 601.8375,395.0859 602.3063,395.3359 C602.7906,395.6172 602.9625,395.8359 603.0563,396.2422 C603.1188,396.6484 603.15,396.7734 603.2906,396.8984 C603.4313,397.0391 603.6656,397.1484 603.8844,397.1484 C604.15,397.1484 604.4156,397.0078 604.5875,396.7891 C604.6969,396.6328 604.7281,396.4453 604.7281,396.0234 L604.7281,394.6016 C604.7281,394.1641 604.7125,394.0391 604.6188,393.8828 C604.4625,393.6172 604.1813,393.4766 603.8844,393.4766 C603.5875,393.4766 603.3844,393.5703 603.1656,393.8828 L602.9938,393.8047 Z " fill="#000000"/><text fill="#000000" font-family="sans-serif" font-size="12" font-style="italic" lengthAdjust="spacing" textLength="77" x="613.35" y="394.1387">«Repository»</text><text fill="#000000" font-family="sans-serif" font-size="14" lengthAdjust="spacing" textLength="41" x="631.35" y="409.9639">Order</text><line style="stroke:#181818;stroke-width:0.5;" x1="583.5" x2="693.5" y1="418.2656" y2="418.2656"/><line style="stroke:#181818;stroke-width:0.5;" x1="583.5" x2="693.5" y1="426.2656" y2="426.2656"/><ellipse cx="593.5" cy="437.2656" fill="#84BE84" rx="3" ry="3" style="stroke:#038048;stroke-width:1.0;"/><text fill="#000000" font-family="sans-serif" font-size="14" lengthAdjust="spacing" text-decoration="underline" textLength="70" x="602.5" y="443.2607">findFirst()</text><ellipse cx="593.5" cy="453.5625" fill="#84BE84" rx="3" ry="3" style="stroke:#038048;stroke-width:1.0;"/><text fill="#000000" font-family="sans-serif" font-size="14" lengthAdjust="spacing" text-decoration="underline" textLength="86" x="602.5" y="459.5576">findUnique()</text><ellipse cx="593.5" cy="469.8594" fill="#84BE84" rx="3" ry="3" style="stroke:#038048;stroke-width:1.0;"/><text fill="#000000" font-family="sans-serif" font-size="14" lengthAdjust="spacing" text-decoration="underline" textLength="75" x="602.5" y="475.8545">findMany()</text><ellipse cx="593.5" cy="486.1563" fill="#84BE84" rx="3" ry="3" style="stroke:#038048;stroke-width:1.0;"/><text fill="#000000" font-family="sans-serif" font-size="14" lengthAdjust="spacing" text-decoration="underline" textLength="57" x="602.5" y="492.1514">create()</text><ellipse cx="593.5" cy="502.4531" fill="#84BE84" rx="3" ry="3" style="stroke:#038048;stroke-width:1.0;"/><text fill="#000000" font-family="sans-serif" font-size="14" lengthAdjust="spacing" text-decoration="underline" textLength="61" x="602.5" y="508.4482">update()</text><ellipse cx="593.5" cy="518.75" fill="#84BE84" rx="3" ry="3" style="stroke:#038048;stroke-width:1.0;"/><text fill="#000000" font-family="sans-serif" font-size="14" lengthAdjust="spacing" text-decoration="underline" textLength="51" x="602.5" y="524.7451">count()</text></g><!--MD5=[fe3376ef9002803d195475376896b08f]
class Prisma.Review--><g id="elem_Prisma.Review"><rect codeLine="37" fill="#F1F1F1" height="105.1563" id="Prisma.Review" rx="2.5" ry="2.5" style="stroke:#181818;stroke-width:0.5;" width="120" x="729.5" y="402.5"/><ellipse cx="751.25" cy="422.6328" fill="#ADD1B2" rx="11" ry="11" style="stroke:#181818;stroke-width:1.0;"/><path d="M753.5938,418.3047 C752.6563,417.8672 752.0625,417.7266 751.1875,417.7266 C748.5625,417.7266 746.5625,419.8047 746.5625,422.5234 L746.5625,423.6484 C746.5625,426.2266 748.6719,428.1172 751.5625,428.1172 C752.7813,428.1172 753.9375,427.8203 754.6875,427.2734 C755.2656,426.8672 755.5938,426.4141 755.5938,426.0234 C755.5938,425.5703 755.2031,425.1797 754.7344,425.1797 C754.5156,425.1797 754.3125,425.2578 754.125,425.4453 C753.6719,425.9297 753.6719,425.9297 753.4844,426.0234 C753.0625,426.2891 752.375,426.4141 751.6094,426.4141 C749.5625,426.4141 748.2656,425.3203 748.2656,423.6172 L748.2656,422.5234 C748.2656,420.7422 749.5156,419.4297 751.25,419.4297 C751.8281,419.4297 752.4375,419.5859 752.9063,419.8359 C753.3906,420.1172 753.5625,420.3359 753.6563,420.7422 C753.7188,421.1484 753.75,421.2734 753.8906,421.3984 C754.0313,421.5391 754.2656,421.6484 754.4844,421.6484 C754.75,421.6484 755.0156,421.5078 755.1875,421.2891 C755.2969,421.1328 755.3281,420.9453 755.3281,420.5234 L755.3281,419.1016 C755.3281,418.6641 755.3125,418.5391 755.2188,418.3828 C755.0625,418.1172 754.7813,417.9766 754.4844,417.9766 C754.1875,417.9766 753.9844,418.0703 753.7656,418.3828 L753.5938,418.3047 Z " fill="#000000"/><text fill="#000000" font-family="sans-serif" font-size="12" font-style="italic" lengthAdjust="spacing" textLength="77" x="764.75" y="418.6387">«Repository»</text><text fill="#000000" font-family="sans-serif" font-size="14" lengthAdjust="spacing" textLength="51" x="777.75" y="434.4639">Review</text><line style="stroke:#181818;stroke-width:0.5;" x1="730.5" x2="848.5" y1="442.7656" y2="442.7656"/><line style="stroke:#181818;stroke-width:0.5;" x1="730.5" x2="848.5" y1="450.7656" y2="450.7656"/><ellipse cx="740.5" cy="461.7656" fill="#84BE84" rx="3" ry="3" style="stroke:#038048;stroke-width:1.0;"/><text fill="#000000" font-family="sans-serif" font-size="14" lengthAdjust="spacing" text-decoration="underline" textLength="75" x="749.5" y="467.7607">findMany()</text><ellipse cx="740.5" cy="478.0625" fill="#84BE84" rx="3" ry="3" style="stroke:#038048;stroke-width:1.0;"/><text fill="#000000" font-family="sans-serif" font-size="14" lengthAdjust="spacing" text-decoration="underline" textLength="94" x="749.5" y="484.0576">createMany()</text><ellipse cx="740.5" cy="494.3594" fill="#84BE84" rx="3" ry="3" style="stroke:#038048;stroke-width:1.0;"/><text fill="#000000" font-family="sans-serif" font-size="14" lengthAdjust="spacing" text-decoration="underline" textLength="84" x="749.5" y="500.3545">aggregate()</text></g><!--MD5=[b03d4ea85b5316bc64c214d18415a834]
class ProductDetailPage--><g id="elem_ProductDetailPage"><rect codeLine="51" fill="#F1F1F1" height="56.2656" id="ProductDetailPage" rx="2.5" ry="2.5" style="stroke:#181818;stroke-width:0.5;" width="166" x="916.5" y="7"/><ellipse cx="931.5" cy="27.1328" fill="#ADD1B2" rx="11" ry="11" style="stroke:#181818;stroke-width:1.0;"/><path d="M933.8438,22.8047 C932.9063,22.3672 932.3125,22.2266 931.4375,22.2266 C928.8125,22.2266 926.8125,24.3047 926.8125,27.0234 L926.8125,28.1484 C926.8125,30.7266 928.9219,32.6172 931.8125,32.6172 C933.0313,32.6172 934.1875,32.3203 934.9375,31.7734 C935.5156,31.3672 935.8438,30.9141 935.8438,30.5234 C935.8438,30.0703 935.4531,29.6797 934.9844,29.6797 C934.7656,29.6797 934.5625,29.7578 934.375,29.9453 C933.9219,30.4297 933.9219,30.4297 933.7344,30.5234 C933.3125,30.7891 932.625,30.9141 931.8594,30.9141 C929.8125,30.9141 928.5156,29.8203 928.5156,28.1172 L928.5156,27.0234 C928.5156,25.2422 929.7656,23.9297 931.5,23.9297 C932.0781,23.9297 932.6875,24.0859 933.1563,24.3359 C933.6406,24.6172 933.8125,24.8359 933.9063,25.2422 C933.9688,25.6484 934,25.7734 934.1406,25.8984 C934.2813,26.0391 934.5156,26.1484 934.7344,26.1484 C935,26.1484 935.2656,26.0078 935.4375,25.7891 C935.5469,25.6328 935.5781,25.4453 935.5781,25.0234 L935.5781,23.6016 C935.5781,23.1641 935.5625,23.0391 935.4688,22.8828 C935.3125,22.6172 935.0313,22.4766 934.7344,22.4766 C934.4375,22.4766 934.2344,22.5703 934.0156,22.8828 L933.8438,22.8047 Z " fill="#000000"/><text fill="#000000" font-family="sans-serif" font-size="12" font-style="italic" lengthAdjust="spacing" textLength="72" x="976.5" y="23.1387">«Boundary»</text><text fill="#000000" font-family="sans-serif" font-size="14" lengthAdjust="spacing" textLength="134" x="945.5" y="38.9639">ProductDetailPage</text><line style="stroke:#181818;stroke-width:0.5;" x1="917.5" x2="1081.5" y1="47.2656" y2="47.2656"/><line style="stroke:#181818;stroke-width:0.5;" x1="917.5" x2="1081.5" y1="55.2656" y2="55.2656"/></g><!--MD5=[296527245c86588be280a5ca8b927455]
class ShopProfilePage--><g id="elem_ShopProfilePage"><rect codeLine="52" fill="#F1F1F1" height="56.2656" id="ShopProfilePage" rx="2.5" ry="2.5" style="stroke:#181818;stroke-width:0.5;" width="151" x="1118" y="7"/><ellipse cx="1133" cy="27.1328" fill="#ADD1B2" rx="11" ry="11" style="stroke:#181818;stroke-width:1.0;"/><path d="M1135.3438,22.8047 C1134.4063,22.3672 1133.8125,22.2266 1132.9375,22.2266 C1130.3125,22.2266 1128.3125,24.3047 1128.3125,27.0234 L1128.3125,28.1484 C1128.3125,30.7266 1130.4219,32.6172 1133.3125,32.6172 C1134.5313,32.6172 1135.6875,32.3203 1136.4375,31.7734 C1137.0156,31.3672 1137.3438,30.9141 1137.3438,30.5234 C1137.3438,30.0703 1136.9531,29.6797 1136.4844,29.6797 C1136.2656,29.6797 1136.0625,29.7578 1135.875,29.9453 C1135.4219,30.4297 1135.4219,30.4297 1135.2344,30.5234 C1134.8125,30.7891 1134.125,30.9141 1133.3594,30.9141 C1131.3125,30.9141 1130.0156,29.8203 1130.0156,28.1172 L1130.0156,27.0234 C1130.0156,25.2422 1131.2656,23.9297 1133,23.9297 C1133.5781,23.9297 1134.1875,24.0859 1134.6563,24.3359 C1135.1406,24.6172 1135.3125,24.8359 1135.4063,25.2422 C1135.4688,25.6484 1135.5,25.7734 1135.6406,25.8984 C1135.7813,26.0391 1136.0156,26.1484 1136.2344,26.1484 C1136.5,26.1484 1136.7656,26.0078 1136.9375,25.7891 C1137.0469,25.6328 1137.0781,25.4453 1137.0781,25.0234 L1137.0781,23.6016 C1137.0781,23.1641 1137.0625,23.0391 1136.9688,22.8828 C1136.8125,22.6172 1136.5313,22.4766 1136.2344,22.4766 C1135.9375,22.4766 1135.7344,22.5703 1135.5156,22.8828 L1135.3438,22.8047 Z " fill="#000000"/><text fill="#000000" font-family="sans-serif" font-size="12" font-style="italic" lengthAdjust="spacing" textLength="72" x="1170.5" y="23.1387">«Boundary»</text><text fill="#000000" font-family="sans-serif" font-size="14" lengthAdjust="spacing" textLength="119" x="1147" y="38.9639">ShopProfilePage</text><line style="stroke:#181818;stroke-width:0.5;" x1="1119" x2="1268" y1="47.2656" y2="47.2656"/><line style="stroke:#181818;stroke-width:0.5;" x1="1119" x2="1268" y1="55.2656" y2="55.2656"/></g><!--MD5=[8fc13f04bad496b578bcfe7170c6f8d6]
class WriteReviewPage--><g id="elem_WriteReviewPage"><rect codeLine="53" fill="#F1F1F1" height="56.2656" id="WriteReviewPage" rx="2.5" ry="2.5" style="stroke:#181818;stroke-width:0.5;" width="158" x="710.5" y="7"/><ellipse cx="725.5" cy="27.1328" fill="#ADD1B2" rx="11" ry="11" style="stroke:#181818;stroke-width:1.0;"/><path d="M727.8438,22.8047 C726.9063,22.3672 726.3125,22.2266 725.4375,22.2266 C722.8125,22.2266 720.8125,24.3047 720.8125,27.0234 L720.8125,28.1484 C720.8125,30.7266 722.9219,32.6172 725.8125,32.6172 C727.0313,32.6172 728.1875,32.3203 728.9375,31.7734 C729.5156,31.3672 729.8438,30.9141 729.8438,30.5234 C729.8438,30.0703 729.4531,29.6797 728.9844,29.6797 C728.7656,29.6797 728.5625,29.7578 728.375,29.9453 C727.9219,30.4297 727.9219,30.4297 727.7344,30.5234 C727.3125,30.7891 726.625,30.9141 725.8594,30.9141 C723.8125,30.9141 722.5156,29.8203 722.5156,28.1172 L722.5156,27.0234 C722.5156,25.2422 723.7656,23.9297 725.5,23.9297 C726.0781,23.9297 726.6875,24.0859 727.1563,24.3359 C727.6406,24.6172 727.8125,24.8359 727.9063,25.2422 C727.9688,25.6484 728,25.7734 728.1406,25.8984 C728.2813,26.0391 728.5156,26.1484 728.7344,26.1484 C729,26.1484 729.2656,26.0078 729.4375,25.7891 C729.5469,25.6328 729.5781,25.4453 729.5781,25.0234 L729.5781,23.6016 C729.5781,23.1641 729.5625,23.0391 729.4688,22.8828 C729.3125,22.6172 729.0313,22.4766 728.7344,22.4766 C728.4375,22.4766 728.2344,22.5703 728.0156,22.8828 L727.8438,22.8047 Z " fill="#000000"/><text fill="#000000" font-family="sans-serif" font-size="12" font-style="italic" lengthAdjust="spacing" textLength="72" x="766.5" y="23.1387">«Boundary»</text><text fill="#000000" font-family="sans-serif" font-size="14" lengthAdjust="spacing" textLength="126" x="739.5" y="38.9639">WriteReviewPage</text><line style="stroke:#181818;stroke-width:0.5;" x1="711.5" x2="867.5" y1="47.2656" y2="47.2656"/><line style="stroke:#181818;stroke-width:0.5;" x1="711.5" x2="867.5" y1="55.2656" y2="55.2656"/></g><!--MD5=[31c1dcb96323399c92e3daddc9b5c3bf]
class ShopOrderDetailPage--><g id="elem_ShopOrderDetailPage"><rect codeLine="54" fill="#F1F1F1" height="56.2656" id="ShopOrderDetailPage" rx="2.5" ry="2.5" style="stroke:#181818;stroke-width:0.5;" width="188" x="417.5" y="7"/><ellipse cx="432.5" cy="27.1328" fill="#ADD1B2" rx="11" ry="11" style="stroke:#181818;stroke-width:1.0;"/><path d="M434.8438,22.8047 C433.9063,22.3672 433.3125,22.2266 432.4375,22.2266 C429.8125,22.2266 427.8125,24.3047 427.8125,27.0234 L427.8125,28.1484 C427.8125,30.7266 429.9219,32.6172 432.8125,32.6172 C434.0313,32.6172 435.1875,32.3203 435.9375,31.7734 C436.5156,31.3672 436.8438,30.9141 436.8438,30.5234 C436.8438,30.0703 436.4531,29.6797 435.9844,29.6797 C435.7656,29.6797 435.5625,29.7578 435.375,29.9453 C434.9219,30.4297 434.9219,30.4297 434.7344,30.5234 C434.3125,30.7891 433.625,30.9141 432.8594,30.9141 C430.8125,30.9141 429.5156,29.8203 429.5156,28.1172 L429.5156,27.0234 C429.5156,25.2422 430.7656,23.9297 432.5,23.9297 C433.0781,23.9297 433.6875,24.0859 434.1563,24.3359 C434.6406,24.6172 434.8125,24.8359 434.9063,25.2422 C434.9688,25.6484 435,25.7734 435.1406,25.8984 C435.2813,26.0391 435.5156,26.1484 435.7344,26.1484 C436,26.1484 436.2656,26.0078 436.4375,25.7891 C436.5469,25.6328 436.5781,25.4453 436.5781,25.0234 L436.5781,23.6016 C436.5781,23.1641 436.5625,23.0391 436.4688,22.8828 C436.3125,22.6172 436.0313,22.4766 435.7344,22.4766 C435.4375,22.4766 435.2344,22.5703 435.0156,22.8828 L434.8438,22.8047 Z " fill="#000000"/><text fill="#000000" font-family="sans-serif" font-size="12" font-style="italic" lengthAdjust="spacing" textLength="72" x="488.5" y="23.1387">«Boundary»</text><text fill="#000000" font-family="sans-serif" font-size="14" lengthAdjust="spacing" textLength="156" x="446.5" y="38.9639">ShopOrderDetailPage</text><line style="stroke:#181818;stroke-width:0.5;" x1="418.5" x2="604.5" y1="47.2656" y2="47.2656"/><line style="stroke:#181818;stroke-width:0.5;" x1="418.5" x2="604.5" y1="55.2656" y2="55.2656"/></g><!--MD5=[e27e641d1213c84f977cf398cb94d5f6]
class ShopOrderListPage--><g id="elem_ShopOrderListPage"><rect codeLine="55" fill="#F1F1F1" height="56.2656" id="ShopOrderListPage" rx="2.5" ry="2.5" style="stroke:#181818;stroke-width:0.5;" width="171" x="207" y="7"/><ellipse cx="222" cy="27.1328" fill="#ADD1B2" rx="11" ry="11" style="stroke:#181818;stroke-width:1.0;"/><path d="M224.3438,22.8047 C223.4063,22.3672 222.8125,22.2266 221.9375,22.2266 C219.3125,22.2266 217.3125,24.3047 217.3125,27.0234 L217.3125,28.1484 C217.3125,30.7266 219.4219,32.6172 222.3125,32.6172 C223.5313,32.6172 224.6875,32.3203 225.4375,31.7734 C226.0156,31.3672 226.3438,30.9141 226.3438,30.5234 C226.3438,30.0703 225.9531,29.6797 225.4844,29.6797 C225.2656,29.6797 225.0625,29.7578 224.875,29.9453 C224.4219,30.4297 224.4219,30.4297 224.2344,30.5234 C223.8125,30.7891 223.125,30.9141 222.3594,30.9141 C220.3125,30.9141 219.0156,29.8203 219.0156,28.1172 L219.0156,27.0234 C219.0156,25.2422 220.2656,23.9297 222,23.9297 C222.5781,23.9297 223.1875,24.0859 223.6563,24.3359 C224.1406,24.6172 224.3125,24.8359 224.4063,25.2422 C224.4688,25.6484 224.5,25.7734 224.6406,25.8984 C224.7813,26.0391 225.0156,26.1484 225.2344,26.1484 C225.5,26.1484 225.7656,26.0078 225.9375,25.7891 C226.0469,25.6328 226.0781,25.4453 226.0781,25.0234 L226.0781,23.6016 C226.0781,23.1641 226.0625,23.0391 225.9688,22.8828 C225.8125,22.6172 225.5313,22.4766 225.2344,22.4766 C224.9375,22.4766 224.7344,22.5703 224.5156,22.8828 L224.3438,22.8047 Z " fill="#000000"/><text fill="#000000" font-family="sans-serif" font-size="12" font-style="italic" lengthAdjust="spacing" textLength="72" x="269.5" y="23.1387">«Boundary»</text><text fill="#000000" font-family="sans-serif" font-size="14" lengthAdjust="spacing" textLength="139" x="236" y="38.9639">ShopOrderListPage</text><line style="stroke:#181818;stroke-width:0.5;" x1="208" x2="377" y1="47.2656" y2="47.2656"/><line style="stroke:#181818;stroke-width:0.5;" x1="208" x2="377" y1="55.2656" y2="55.2656"/></g><!--MD5=[cb2f11e22914e7d3013d6d364496ce8f]
class UserOrderListPage--><g id="elem_UserOrderListPage"><rect codeLine="56" fill="#F1F1F1" height="56.2656" id="UserOrderListPage" rx="2.5" ry="2.5" style="stroke:#181818;stroke-width:0.5;" width="165" x="7" y="7"/><ellipse cx="22" cy="27.1328" fill="#ADD1B2" rx="11" ry="11" style="stroke:#181818;stroke-width:1.0;"/><path d="M24.3438,22.8047 C23.4063,22.3672 22.8125,22.2266 21.9375,22.2266 C19.3125,22.2266 17.3125,24.3047 17.3125,27.0234 L17.3125,28.1484 C17.3125,30.7266 19.4219,32.6172 22.3125,32.6172 C23.5313,32.6172 24.6875,32.3203 25.4375,31.7734 C26.0156,31.3672 26.3438,30.9141 26.3438,30.5234 C26.3438,30.0703 25.9531,29.6797 25.4844,29.6797 C25.2656,29.6797 25.0625,29.7578 24.875,29.9453 C24.4219,30.4297 24.4219,30.4297 24.2344,30.5234 C23.8125,30.7891 23.125,30.9141 22.3594,30.9141 C20.3125,30.9141 19.0156,29.8203 19.0156,28.1172 L19.0156,27.0234 C19.0156,25.2422 20.2656,23.9297 22,23.9297 C22.5781,23.9297 23.1875,24.0859 23.6563,24.3359 C24.1406,24.6172 24.3125,24.8359 24.4063,25.2422 C24.4688,25.6484 24.5,25.7734 24.6406,25.8984 C24.7813,26.0391 25.0156,26.1484 25.2344,26.1484 C25.5,26.1484 25.7656,26.0078 25.9375,25.7891 C26.0469,25.6328 26.0781,25.4453 26.0781,25.0234 L26.0781,23.6016 C26.0781,23.1641 26.0625,23.0391 25.9688,22.8828 C25.8125,22.6172 25.5313,22.4766 25.2344,22.4766 C24.9375,22.4766 24.7344,22.5703 24.5156,22.8828 L24.3438,22.8047 Z " fill="#000000"/><text fill="#000000" font-family="sans-serif" font-size="12" font-style="italic" lengthAdjust="spacing" textLength="72" x="66.5" y="23.1387">«Boundary»</text><text fill="#000000" font-family="sans-serif" font-size="14" lengthAdjust="spacing" textLength="133" x="36" y="38.9639">UserOrderListPage</text><line style="stroke:#181818;stroke-width:0.5;" x1="8" x2="171" y1="47.2656" y2="47.2656"/><line style="stroke:#181818;stroke-width:0.5;" x1="8" x2="171" y1="55.2656" y2="55.2656"/></g><!--MD5=[36e4bb77df6a79709882d3d011629c26]
link Order.OrderQueries to Prisma.Order--><g id="link_Order.OrderQueries_Prisma.Order"><path codeLine="43" d="M372.042,278.172 C383.573,286.246 395.299,294.371 406.5,302 C465.999,342.524 535.126,387.555 582.344,418.008 " fill="none" id="Order.OrderQueries-Prisma.Order" style="stroke:#181818;stroke-width:1.0;"/><polygon fill="#000000" points="447.6636,321.3349,441.7589,313.8794,438.5043,318.7739,447.6636,321.3349" style="stroke:#000000;stroke-width:1.0;"/><text fill="#000000" font-family="sans-serif" font-size="13" lengthAdjust="spacing" textLength="21" x="452.5" y="323.0669">call</text><text fill="#000000" font-family="sans-serif" font-size="13" lengthAdjust="spacing" textLength="24" x="356.7612" y="298.5278">1..1</text><text fill="#000000" font-family="sans-serif" font-size="13" lengthAdjust="spacing" textLength="23" x="551.5213" y="409.9355">0..*</text></g><!--MD5=[bbbc71d08b601b1023b7740444aedee5]
link Order.OrderMutations to Prisma.Order--><g id="link_Order.OrderMutations_Prisma.Order"><path codeLine="44" d="M549.333,254.012 C563.885,286.649 585.943,336.123 604.479,377.696 " fill="none" id="Order.OrderMutations-Prisma.Order" style="stroke:#181818;stroke-width:1.0;"/><polygon fill="#000000" points="587.5361,323.1331,586.537,313.6751,581.1686,316.0687,587.5361,323.1331" style="stroke:#000000;stroke-width:1.0;"/><text fill="#000000" font-family="sans-serif" font-size="13" lengthAdjust="spacing" textLength="21" x="594.5" y="323.0669">call</text><text fill="#000000" font-family="sans-serif" font-size="13" lengthAdjust="spacing" textLength="24" x="525.9918" y="273.6925">1..1</text><text fill="#000000" font-family="sans-serif" font-size="13" lengthAdjust="spacing" textLength="23" x="577.2825" y="366.949">1..*</text></g><!--MD5=[ef60bbfc50e7f661f3667c7bb713cc9d]
link Review.ReviewQueries to Prisma.Review--><g id="link_Review.ReviewQueries_Prisma.Review"><path codeLine="45" d="M971.892,262.244 C934.189,301.883 878.587,360.339 838.695,402.28 " fill="none" id="Review.ReviewQueries-Prisma.Review" style="stroke:#181818;stroke-width:1.0;"/><polygon fill="#000000" points="923.054,322.1893,931.4173,317.6609,927.1584,313.6099,923.054,322.1893" style="stroke:#000000;stroke-width:1.0;"/><text fill="#000000" font-family="sans-serif" font-size="13" lengthAdjust="spacing" textLength="21" x="935.5" y="323.0669">call</text><text fill="#000000" font-family="sans-serif" font-size="13" lengthAdjust="spacing" textLength="24" x="940.0183" y="282.0043">1..1</text><text fill="#000000" font-family="sans-serif" font-size="13" lengthAdjust="spacing" textLength="23" x="820.7603" y="391.2533">0..*</text></g><!--MD5=[874eb6021df9fc0dcf972413d8fc7509]
link Review.ReviewMutations to Prisma.Review--><g id="link_Review.ReviewMutations_Prisma.Review"><path codeLine="46" d="M789.5,254.012 C789.5,293.459 789.5,357.503 789.5,402.464 " fill="none" id="Review.ReviewMutations-Prisma.Review" style="stroke:#181818;stroke-width:1.0;"/><polygon fill="#000000" points="794.5,323.5664,797.4389,314.5213,791.5611,314.5213,794.5,323.5664" style="stroke:#000000;stroke-width:1.0;"/><text fill="#000000" font-family="sans-serif" font-size="13" lengthAdjust="spacing" textLength="21" x="803.5" y="323.0669">call</text><text fill="#000000" font-family="sans-serif" font-size="13" lengthAdjust="spacing" textLength="24" x="791.5625" y="273.6925">1..1</text><text fill="#000000" font-family="sans-serif" font-size="13" lengthAdjust="spacing" textLength="23" x="764.9547" y="391.462">1..*</text></g><!--MD5=[3b8ff1432b365d0110400936ebf03f27]
link Review.ReviewMutations to Prisma.Order--><g id="link_Review.ReviewMutations_Prisma.Order"><path codeLine="47" d="M765.653,254.024 C750.311,277.015 730.036,307.652 712.5,335 C703.636,348.824 694.301,363.631 685.361,377.942 " fill="none" id="Review.ReviewMutations-Prisma.Order" style="stroke:#181818;stroke-width:1.0;"/><polygon fill="#000000" points="728.7811,322.7626,736.1661,316.7698,731.2332,313.5735,728.7811,322.7626" style="stroke:#000000;stroke-width:1.0;"/><text fill="#000000" font-family="sans-serif" font-size="13" lengthAdjust="spacing" textLength="21" x="740.5" y="323.0669">call</text><text fill="#000000" font-family="sans-serif" font-size="13" lengthAdjust="spacing" textLength="24" x="735.4918" y="273.7065">1..1</text><text fill="#000000" font-family="sans-serif" font-size="13" lengthAdjust="spacing" textLength="23" x="665.7313" y="366.9536">1..*</text></g><!--MD5=[b406d3d774f8323b3b38dec30e6235b8]
link ProductDetailPage to Review.ReviewQueries--><g id="link_ProductDetailPage_Review.ReviewQueries"><path codeLine="58" d="M1001.596,63.023 C1003.846,92.035 1007.46,138.566 1010.11,172.796 " fill="none" id="ProductDetailPage-Review.ReviewQueries" style="stroke:#181818;stroke-width:1.0;"/><polygon fill="#000000" points="1009.8866,104.485,1012.1173,95.2398,1006.2571,95.6943,1009.8866,104.485" style="stroke:#000000;stroke-width:1.0;"/><text fill="#000000" font-family="sans-serif" font-size="13" lengthAdjust="spacing" textLength="23" x="976.4213" y="83.2892">0..*</text><text fill="#000000" font-family="sans-serif" font-size="13" lengthAdjust="spacing" textLength="24" x="983.7534" y="161.8901">1..1</text></g><!--MD5=[403335fa2c112db35087ec434c20c3cc]
link ShopProfilePage to Review.ReviewQueries--><g id="link_ShopProfilePage_Review.ReviewQueries"><path codeLine="59" d="M1166.55,63.023 C1137.62,92.035 1091.22,138.566 1057.08,172.796 " fill="none" id="ShopProfilePage-Review.ReviewQueries" style="stroke:#181818;stroke-width:1.0;"/><polygon fill="#000000" points="1135.9694,103.0404,1144.4374,98.711,1140.2753,94.5605,1135.9694,103.0404" style="stroke:#000000;stroke-width:1.0;"/><text fill="#000000" font-family="sans-serif" font-size="13" lengthAdjust="spacing" textLength="23" x="1134.6584" y="83.2892">0..*</text><text fill="#000000" font-family="sans-serif" font-size="13" lengthAdjust="spacing" textLength="24" x="1037.9157" y="161.8901">1..1</text></g><!--MD5=[b7d48ee2f0a911704814a1ad1f363f6c]
link WriteReviewPage to Review.ReviewMutations--><g id="link_WriteReviewPage_Review.ReviewMutations"><path codeLine="60" d="M789.5,63.023 C789.5,94.395 789.5,146.253 789.5,180.89 " fill="none" id="WriteReviewPage-Review.ReviewMutations" style="stroke:#181818;stroke-width:1.0;"/><polygon fill="#000000" points="794.5,104.5,797.4389,95.4549,791.5611,95.4549,794.5,104.5" style="stroke:#000000;stroke-width:1.0;"/><text fill="#000000" font-family="sans-serif" font-size="13" lengthAdjust="spacing" textLength="23" x="763.8406" y="83.2892">0..*</text><text fill="#000000" font-family="sans-serif" font-size="13" lengthAdjust="spacing" textLength="24" x="763.2875" y="169.8767">1..1</text></g><!--MD5=[22530c533f5da27f315acca9f357e36c]
link ShopOrderDetailPage to Order.OrderQueries--><g id="link_ShopOrderDetailPage_Order.OrderQueries"><path codeLine="62" d="M473.554,63.114 C453.36,77.811 428.27,96.501 406.5,114 C389.686,127.516 371.935,142.522 355.451,156.789 " fill="none" id="ShopOrderDetailPage-Order.OrderQueries" style="stroke:#181818;stroke-width:1.0;"/><polygon fill="#000000" points="433.5826,102.6071,442.4955,99.2889,438.8429,94.6837,433.5826,102.6071" style="stroke:#000000;stroke-width:1.0;"/><text fill="#000000" font-family="sans-serif" font-size="13" lengthAdjust="spacing" textLength="23" x="439.1196" y="83.4013">0..*</text><text fill="#000000" font-family="sans-serif" font-size="13" lengthAdjust="spacing" textLength="24" x="337.8047" y="145.9505">1..1</text></g><!--MD5=[f1bc017da5bcd03141b0b14cbd94a72d]
link ShopOrderListPage to Order.OrderQueries--><g id="link_ShopOrderListPage_Order.OrderQueries"><path codeLine="63" d="M291.901,63.023 C291.354,87.708 290.526,125.075 289.824,156.757 " fill="none" id="ShopOrderListPage-Order.OrderQueries" style="stroke:#181818;stroke-width:1.0;"/><polygon fill="#000000" points="296.3892,104.4988,299.5278,95.521,293.6514,95.3908,296.3892,104.4988" style="stroke:#000000;stroke-width:1.0;"/><text fill="#000000" font-family="sans-serif" font-size="13" lengthAdjust="spacing" textLength="23" x="266.1031" y="83.2892">0..*</text><text fill="#000000" font-family="sans-serif" font-size="13" lengthAdjust="spacing" textLength="24" x="264.5896" y="145.9148">1..1</text></g><!--MD5=[02bd4561172999e29fb87a426d4ed97d]
link UserOrderListPage to Order.OrderQueries--><g id="link_UserOrderListPage_Order.OrderQueries"><path codeLine="64" d="M119.292,63.023 C146.507,87.708 187.705,125.075 222.634,156.757 " fill="none" id="UserOrderListPage-Order.OrderQueries" style="stroke:#181818;stroke-width:1.0;"/><polygon fill="#000000" points="174.2035,102.8592,169.4783,94.6055,165.5293,98.9592,174.2035,102.8592" style="stroke:#000000;stroke-width:1.0;"/><text fill="#000000" font-family="sans-serif" font-size="13" lengthAdjust="spacing" textLength="23" x="100.5224" y="83.2892">0..*</text><text fill="#000000" font-family="sans-serif" font-size="13" lengthAdjust="spacing" textLength="24" x="189.6307" y="145.9148">1..1</text></g><!--MD5=[5240a521b76eabef15f27e5e5e203035]
link ShopOrderDetailPage to Order.OrderMutations--><g id="link_ShopOrderDetailPage_Order.OrderMutations"><path codeLine="65" d="M514.794,63.023 C518.617,94.395 524.938,146.253 529.16,180.89 " fill="none" id="ShopOrderDetailPage-Order.OrderMutations" style="stroke:#181818;stroke-width:1.0;"/><polygon fill="#000000" points="526.1049,104.4633,527.9279,95.1291,522.0933,95.8402,526.1049,104.4633" style="stroke:#000000;stroke-width:1.0;"/><text fill="#000000" font-family="sans-serif" font-size="13" lengthAdjust="spacing" textLength="23" x="489.8964" y="83.2892">0..*</text><text fill="#000000" font-family="sans-serif" font-size="13" lengthAdjust="spacing" textLength="24" x="502.1473" y="169.8767">1..1</text></g><!--MD5=[ef500c8747c8dd27fe43a61f10a8c08a]
@startuml
namespace Order {
  class OrderQueries <<Controller>> {
    + int countSoldOrders()
    + Order getOrder()
    + Order[] getOrders()
    + Order[] getShopOrders()
  }

  class OrderMutations <<Controller>> {
    + Order updateOrderStatus()
  }
}

namespace Review {

  class ReviewQueries <<Controller>> {
    + (double, int) getRating()
    + Review[] getReviews()
  }

  class ReviewMutations <<Controller>> {
    + Review writeReview()
  }

}

namespace Prisma {
  class Order <<Repository>> {
    + {static} findFirst()
    + {static} findUnique()
    + {static} findMany()
    + {static} create()
    + {static} update()
    + {static} count()
  }

  class Review <<Repository>> {
    + {static} findMany()
    + {static} createMany()
    + {static} aggregate()
  }

  Order.OrderQueries "1..1" - - "0..*" Order: call >
  Order.OrderMutations "1..1" - - "1..*" Order: call >
  Review.ReviewQueries "1..1" - - "0..*" Review: call >
  Review.ReviewMutations "1..1" - - "1..*" Review: call >
  Review.ReviewMutations "1..1" - - "1..*" Order: call >
}


class ProductDetailPage <<Boundary>> {}
class ShopProfilePage <<Boundary>> {}
class WriteReviewPage <<Boundary>> {}
class ShopOrderDetailPage <<Boundary>> {}
class ShopOrderListPage <<Boundary>> {}
class UserOrderListPage <<Boundary>> {}

ProductDetailPage "0..*" - - "1..1" Review.ReviewQueries: >
ShopProfilePage "0..*" - - "1..1" Review.ReviewQueries: >
WriteReviewPage "0..*" - - "1..1" Review.ReviewMutations: >

ShopOrderDetailPage "0..*" - - "1..1" Order.OrderQueries: >
ShopOrderListPage "0..*" - - "1..1" Order.OrderQueries: >
UserOrderListPage "0..*" - - "1..1" Order.OrderQueries: >
ShopOrderDetailPage "0..*" - - "1..1" Order.OrderMutations: >
@enduml

PlantUML version 1.2022.5(Sat Apr 30 10:55:52 UTC 2022)
(GPL source distribution)
Java Runtime: Java(TM) SE Runtime Environment
JVM: Java HotSpot(TM) 64-Bit Server VM
Default Encoding: UTF-8
Language: en
Country: US
--></g></svg>