<?xml version="1.0" encoding="UTF-8" standalone="no"?><svg xmlns="http://www.w3.org/2000/svg" xmlns:xlink="http://www.w3.org/1999/xlink" contentStyleType="text/css" height="959px" preserveAspectRatio="none" style="width:1227px;height:959px;background:#FFFFFF;" version="1.1" viewBox="0 0 1227 959" width="1227px" zoomAndPan="magnify"><defs/><g><!--MD5=[4523f918a499262345e8d765b0fe948b]
cluster Order--><g id="cluster_Order"><path d="M8.5,122 L54.5,122 A3.75,3.75 0 0 1 57,124.5 L64,144.2969 L491.5,144.2969 A2.5,2.5 0 0 1 494,146.7969 L494,949.5 A2.5,2.5 0 0 1 491.5,952 L8.5,952 A2.5,2.5 0 0 1 6,949.5 L6,124.5 A2.5,2.5 0 0 1 8.5,122 " style="stroke:#000000;stroke-width:1.5;fill:none;"/><line style="stroke:#000000;stroke-width:1.5;fill:none;" x1="6" x2="64" y1="144.2969" y2="144.2969"/><text fill="#000000" font-family="sans-serif" font-size="14" font-weight="bold" lengthAdjust="spacing" textLength="45" x="10" y="136.9951">Order</text></g><!--MD5=[6016b8b8de4bd4034d18b8326cdd4d66]
cluster Review--><g id="cluster_Review"><path d="M630.5,138 L687.5,138 A3.75,3.75 0 0 1 690,140.5 L697,160.2969 L1071.5,160.2969 A2.5,2.5 0 0 1 1074,162.7969 L1074,604 A2.5,2.5 0 0 1 1071.5,606.5 L630.5,606.5 A2.5,2.5 0 0 1 628,604 L628,140.5 A2.5,2.5 0 0 1 630.5,138 " style="stroke:#000000;stroke-width:1.5;fill:none;"/><line style="stroke:#000000;stroke-width:1.5;fill:none;" x1="628" x2="697" y1="160.2969" y2="160.2969"/><text fill="#000000" font-family="sans-serif" font-size="14" font-weight="bold" lengthAdjust="spacing" textLength="56" x="632" y="152.9951">Review</text></g><!--MD5=[ef7fc539c9645de96a026ecfbadb5780]
class Order.Order--><g id="elem_Order.Order"><rect codeLine="2" fill="#F1F1F1" height="300.7188" id="Order.Order" rx="2.5" ry="2.5" style="stroke:#181818;stroke-width:0.5;" width="219" x="258.5" y="355"/><ellipse cx="340.75" cy="375.1328" fill="#ADD1B2" rx="11" ry="11" style="stroke:#181818;stroke-width:1.0;"/><path d="M343.0938,370.8047 C342.1563,370.3672 341.5625,370.2266 340.6875,370.2266 C338.0625,370.2266 336.0625,372.3047 336.0625,375.0234 L336.0625,376.1484 C336.0625,378.7266 338.1719,380.6172 341.0625,380.6172 C342.2813,380.6172 343.4375,380.3203 344.1875,379.7734 C344.7656,379.3672 345.0938,378.9141 345.0938,378.5234 C345.0938,378.0703 344.7031,377.6797 344.2344,377.6797 C344.0156,377.6797 343.8125,377.7578 343.625,377.9453 C343.1719,378.4297 343.1719,378.4297 342.9844,378.5234 C342.5625,378.7891 341.875,378.9141 341.1094,378.9141 C339.0625,378.9141 337.7656,377.8203 337.7656,376.1172 L337.7656,375.0234 C337.7656,373.2422 339.0156,371.9297 340.75,371.9297 C341.3281,371.9297 341.9375,372.0859 342.4063,372.3359 C342.8906,372.6172 343.0625,372.8359 343.1563,373.2422 C343.2188,373.6484 343.25,373.7734 343.3906,373.8984 C343.5313,374.0391 343.7656,374.1484 343.9844,374.1484 C344.25,374.1484 344.5156,374.0078 344.6875,373.7891 C344.7969,373.6328 344.8281,373.4453 344.8281,373.0234 L344.8281,371.6016 C344.8281,371.1641 344.8125,371.0391 344.7188,370.8828 C344.5625,370.6172 344.2813,370.4766 343.9844,370.4766 C343.6875,370.4766 343.4844,370.5703 343.2656,370.8828 L343.0938,370.8047 Z " fill="#000000"/><text fill="#000000" font-family="sans-serif" font-size="12" font-style="italic" lengthAdjust="spacing" textLength="50" x="359.25" y="371.1387">«Entity»</text><text fill="#000000" font-family="sans-serif" font-size="14" lengthAdjust="spacing" textLength="41" x="363.75" y="386.9639">Order</text><line style="stroke:#181818;stroke-width:0.5;" x1="259.5" x2="476.5" y1="395.2656" y2="395.2656"/><ellipse cx="269.5" cy="406.2656" fill="none" rx="3" ry="3" style="stroke:#038048;stroke-width:1.0;"/><text fill="#000000" font-family="sans-serif" font-size="14" lengthAdjust="spacing" textLength="78" x="278.5" y="412.2607">id: number</text><ellipse cx="269.5" cy="422.5625" fill="none" rx="3" ry="3" style="stroke:#038048;stroke-width:1.0;"/><text fill="#000000" font-family="sans-serif" font-size="14" lengthAdjust="spacing" textLength="84" x="278.5" y="428.5576">owner: User</text><ellipse cx="269.5" cy="438.8594" fill="none" rx="3" ry="3" style="stroke:#038048;stroke-width:1.0;"/><text fill="#000000" font-family="sans-serif" font-size="14" lengthAdjust="spacing" textLength="81" x="278.5" y="444.8545">shop: Shop</text><text fill="#000000" font-family="sans-serif" font-size="14" lengthAdjust="spacing" textLength="4" x="278.5" y="461.1514"> </text><ellipse cx="269.5" cy="471.4531" fill="none" rx="3" ry="3" style="stroke:#038048;stroke-width:1.0;"/><text fill="#000000" font-family="sans-serif" font-size="14" lengthAdjust="spacing" textLength="140" x="278.5" y="477.4482">status: OrderStatus</text><ellipse cx="269.5" cy="487.75" fill="none" rx="3" ry="3" style="stroke:#038048;stroke-width:1.0;"/><text fill="#000000" font-family="sans-serif" font-size="14" lengthAdjust="spacing" textLength="136" x="278.5" y="493.7451">totalPrice: number</text><ellipse cx="269.5" cy="504.0469" fill="none" rx="3" ry="3" style="stroke:#038048;stroke-width:1.0;"/><text fill="#000000" font-family="sans-serif" font-size="14" lengthAdjust="spacing" textLength="113" x="278.5" y="510.042">chargeId: string</text><ellipse cx="269.5" cy="520.3438" fill="none" rx="3" ry="3" style="stroke:#038048;stroke-width:1.0;"/><text fill="#000000" font-family="sans-serif" font-size="14" lengthAdjust="spacing" textLength="193" x="278.5" y="526.3389">items: OrderItemSnapshot</text><text fill="#000000" font-family="sans-serif" font-size="14" lengthAdjust="spacing" textLength="4" x="278.5" y="542.6357"> </text><ellipse cx="269.5" cy="552.9375" fill="none" rx="3" ry="3" style="stroke:#038048;stroke-width:1.0;"/><text fill="#000000" font-family="sans-serif" font-size="14" lengthAdjust="spacing" textLength="106" x="278.5" y="558.9326">address: string</text><ellipse cx="269.5" cy="569.2344" fill="none" rx="3" ry="3" style="stroke:#038048;stroke-width:1.0;"/><text fill="#000000" font-family="sans-serif" font-size="14" lengthAdjust="spacing" textLength="141" x="278.5" y="575.2295">addressNote: string</text><ellipse cx="269.5" cy="585.5313" fill="none" rx="3" ry="3" style="stroke:#038048;stroke-width:1.0;"/><text fill="#000000" font-family="sans-serif" font-size="14" lengthAdjust="spacing" textLength="151" x="278.5" y="591.5264">receiverName: string</text><ellipse cx="269.5" cy="601.8281" fill="none" rx="3" ry="3" style="stroke:#038048;stroke-width:1.0;"/><text fill="#000000" font-family="sans-serif" font-size="14" lengthAdjust="spacing" textLength="174" x="278.5" y="607.8232">receiverPhoneNo: string</text><text fill="#000000" font-family="sans-serif" font-size="14" lengthAdjust="spacing" textLength="4" x="278.5" y="624.1201"> </text><ellipse cx="269.5" cy="634.4219" fill="none" rx="3" ry="3" style="stroke:#038048;stroke-width:1.0;"/><text fill="#000000" font-family="sans-serif" font-size="14" lengthAdjust="spacing" textLength="185" x="278.5" y="640.417">transaction: Transaction[]</text><line style="stroke:#181818;stroke-width:0.5;" x1="259.5" x2="476.5" y1="647.7188" y2="647.7188"/></g><!--MD5=[334a4150e63c10c4bba13875f7b5a4e9]
class Order.OrderItemSnapshot--><g id="elem_Order.OrderItemSnapshot"><rect codeLine="20" fill="#F1F1F1" height="202.9375" id="Order.OrderItemSnapshot" rx="2.5" ry="2.5" style="stroke:#181818;stroke-width:0.5;" width="175" x="280.5" y="733"/><ellipse cx="295.5" cy="753.1328" fill="#ADD1B2" rx="11" ry="11" style="stroke:#181818;stroke-width:1.0;"/><path d="M297.8438,748.8047 C296.9063,748.3672 296.3125,748.2266 295.4375,748.2266 C292.8125,748.2266 290.8125,750.3047 290.8125,753.0234 L290.8125,754.1484 C290.8125,756.7266 292.9219,758.6172 295.8125,758.6172 C297.0313,758.6172 298.1875,758.3203 298.9375,757.7734 C299.5156,757.3672 299.8438,756.9141 299.8438,756.5234 C299.8438,756.0703 299.4531,755.6797 298.9844,755.6797 C298.7656,755.6797 298.5625,755.7578 298.375,755.9453 C297.9219,756.4297 297.9219,756.4297 297.7344,756.5234 C297.3125,756.7891 296.625,756.9141 295.8594,756.9141 C293.8125,756.9141 292.5156,755.8203 292.5156,754.1172 L292.5156,753.0234 C292.5156,751.2422 293.7656,749.9297 295.5,749.9297 C296.0781,749.9297 296.6875,750.0859 297.1563,750.3359 C297.6406,750.6172 297.8125,750.8359 297.9063,751.2422 C297.9688,751.6484 298,751.7734 298.1406,751.8984 C298.2813,752.0391 298.5156,752.1484 298.7344,752.1484 C299,752.1484 299.2656,752.0078 299.4375,751.7891 C299.5469,751.6328 299.5781,751.4453 299.5781,751.0234 L299.5781,749.6016 C299.5781,749.1641 299.5625,749.0391 299.4688,748.8828 C299.3125,748.6172 299.0313,748.4766 298.7344,748.4766 C298.4375,748.4766 298.2344,748.5703 298.0156,748.8828 L297.8438,748.8047 Z " fill="#000000"/><text fill="#000000" font-family="sans-serif" font-size="12" font-style="italic" lengthAdjust="spacing" textLength="50" x="356" y="749.1387">«Entity»</text><text fill="#000000" font-family="sans-serif" font-size="14" lengthAdjust="spacing" textLength="143" x="309.5" y="764.9639">OrderItemSnapshot</text><line style="stroke:#181818;stroke-width:0.5;" x1="281.5" x2="454.5" y1="773.2656" y2="773.2656"/><ellipse cx="291.5" cy="784.2656" fill="none" rx="3" ry="3" style="stroke:#038048;stroke-width:1.0;"/><text fill="#000000" font-family="sans-serif" font-size="14" lengthAdjust="spacing" textLength="78" x="300.5" y="790.2607">id: number</text><ellipse cx="291.5" cy="800.5625" fill="none" rx="3" ry="3" style="stroke:#038048;stroke-width:1.0;"/><text fill="#000000" font-family="sans-serif" font-size="14" lengthAdjust="spacing" textLength="89" x="300.5" y="806.5576">order: Order</text><ellipse cx="291.5" cy="816.8594" fill="none" rx="3" ry="3" style="stroke:#038048;stroke-width:1.0;"/><text fill="#000000" font-family="sans-serif" font-size="14" lengthAdjust="spacing" textLength="122" x="300.5" y="822.8545">product: Product</text><text fill="#000000" font-family="sans-serif" font-size="14" lengthAdjust="spacing" textLength="4" x="300.5" y="839.1514"> </text><ellipse cx="291.5" cy="849.4531" fill="none" rx="3" ry="3" style="stroke:#038048;stroke-width:1.0;"/><text fill="#000000" font-family="sans-serif" font-size="14" lengthAdjust="spacing" textLength="91" x="300.5" y="855.4482">name: string</text><ellipse cx="291.5" cy="865.75" fill="none" rx="3" ry="3" style="stroke:#038048;stroke-width:1.0;"/><text fill="#000000" font-family="sans-serif" font-size="14" lengthAdjust="spacing" textLength="133" x="300.5" y="871.7451">description: string</text><ellipse cx="291.5" cy="882.0469" fill="none" rx="3" ry="3" style="stroke:#038048;stroke-width:1.0;"/><text fill="#000000" font-family="sans-serif" font-size="14" lengthAdjust="spacing" textLength="80" x="300.5" y="888.042">price: float</text><ellipse cx="291.5" cy="898.3438" fill="none" rx="3" ry="3" style="stroke:#038048;stroke-width:1.0;"/><text fill="#000000" font-family="sans-serif" font-size="14" lengthAdjust="spacing" textLength="108" x="300.5" y="904.3389">soldPrice: float</text><ellipse cx="291.5" cy="914.6406" fill="none" rx="3" ry="3" style="stroke:#038048;stroke-width:1.0;"/><text fill="#000000" font-family="sans-serif" font-size="14" lengthAdjust="spacing" textLength="112" x="300.5" y="920.6357">images: string[]</text><line style="stroke:#181818;stroke-width:0.5;" x1="281.5" x2="454.5" y1="927.9375" y2="927.9375"/></g><!--MD5=[ee5ac047e5d25310242750eedee800ea]
class Order.OrderQueries--><g id="elem_Order.OrderQueries"><rect codeLine="34" fill="#F1F1F1" height="121.4531" id="Order.OrderQueries" rx="2.5" ry="2.5" style="stroke:#181818;stroke-width:0.5;" width="201" x="276.5" y="157"/><ellipse cx="325.25" cy="177.1328" fill="#ADD1B2" rx="11" ry="11" style="stroke:#181818;stroke-width:1.0;"/><path d="M327.5938,172.8047 C326.6563,172.3672 326.0625,172.2266 325.1875,172.2266 C322.5625,172.2266 320.5625,174.3047 320.5625,177.0234 L320.5625,178.1484 C320.5625,180.7266 322.6719,182.6172 325.5625,182.6172 C326.7813,182.6172 327.9375,182.3203 328.6875,181.7734 C329.2656,181.3672 329.5938,180.9141 329.5938,180.5234 C329.5938,180.0703 329.2031,179.6797 328.7344,179.6797 C328.5156,179.6797 328.3125,179.7578 328.125,179.9453 C327.6719,180.4297 327.6719,180.4297 327.4844,180.5234 C327.0625,180.7891 326.375,180.9141 325.6094,180.9141 C323.5625,180.9141 322.2656,179.8203 322.2656,178.1172 L322.2656,177.0234 C322.2656,175.2422 323.5156,173.9297 325.25,173.9297 C325.8281,173.9297 326.4375,174.0859 326.9063,174.3359 C327.3906,174.6172 327.5625,174.8359 327.6563,175.2422 C327.7188,175.6484 327.75,175.7734 327.8906,175.8984 C328.0313,176.0391 328.2656,176.1484 328.4844,176.1484 C328.75,176.1484 329.0156,176.0078 329.1875,175.7891 C329.2969,175.6328 329.3281,175.4453 329.3281,175.0234 L329.3281,173.6016 C329.3281,173.1641 329.3125,173.0391 329.2188,172.8828 C329.0625,172.6172 328.7813,172.4766 328.4844,172.4766 C328.1875,172.4766 327.9844,172.5703 327.7656,172.8828 L327.5938,172.8047 Z " fill="#000000"/><text fill="#000000" font-family="sans-serif" font-size="12" font-style="italic" lengthAdjust="spacing" textLength="72" x="357.25" y="173.1387">«Controller»</text><text fill="#000000" font-family="sans-serif" font-size="14" lengthAdjust="spacing" textLength="95" x="345.75" y="188.9639">OrderQueries</text><line style="stroke:#181818;stroke-width:0.5;" x1="277.5" x2="476.5" y1="197.2656" y2="197.2656"/><line style="stroke:#181818;stroke-width:0.5;" x1="277.5" x2="476.5" y1="205.2656" y2="205.2656"/><ellipse cx="287.5" cy="216.2656" fill="#84BE84" rx="3" ry="3" style="stroke:#038048;stroke-width:1.0;"/><text fill="#000000" font-family="sans-serif" font-size="14" lengthAdjust="spacing" textLength="154" x="296.5" y="222.2607">int countSoldOrders()</text><ellipse cx="287.5" cy="232.5625" fill="#84BE84" rx="3" ry="3" style="stroke:#038048;stroke-width:1.0;"/><text fill="#000000" font-family="sans-serif" font-size="14" lengthAdjust="spacing" textLength="121" x="296.5" y="238.5576">Order getOrder()</text><ellipse cx="287.5" cy="248.8594" fill="#84BE84" rx="3" ry="3" style="stroke:#038048;stroke-width:1.0;"/><text fill="#000000" font-family="sans-serif" font-size="14" lengthAdjust="spacing" textLength="138" x="296.5" y="254.8545">Order[] getOrders()</text><ellipse cx="287.5" cy="265.1563" fill="#84BE84" rx="3" ry="3" style="stroke:#038048;stroke-width:1.0;"/><text fill="#000000" font-family="sans-serif" font-size="14" lengthAdjust="spacing" textLength="175" x="296.5" y="271.1514">Order[] getShopOrders()</text></g><!--MD5=[d6cadcaf092f59acb63d49d011c829c9]
class Order.OrderMutations--><g id="elem_Order.OrderMutations"><rect codeLine="41" fill="#F1F1F1" height="72.5625" id="Order.OrderMutations" rx="2.5" ry="2.5" style="stroke:#181818;stroke-width:0.5;" width="219" x="22.5" y="181"/><ellipse cx="71.75" cy="201.1328" fill="#ADD1B2" rx="11" ry="11" style="stroke:#181818;stroke-width:1.0;"/><path d="M74.0938,196.8047 C73.1563,196.3672 72.5625,196.2266 71.6875,196.2266 C69.0625,196.2266 67.0625,198.3047 67.0625,201.0234 L67.0625,202.1484 C67.0625,204.7266 69.1719,206.6172 72.0625,206.6172 C73.2813,206.6172 74.4375,206.3203 75.1875,205.7734 C75.7656,205.3672 76.0938,204.9141 76.0938,204.5234 C76.0938,204.0703 75.7031,203.6797 75.2344,203.6797 C75.0156,203.6797 74.8125,203.7578 74.625,203.9453 C74.1719,204.4297 74.1719,204.4297 73.9844,204.5234 C73.5625,204.7891 72.875,204.9141 72.1094,204.9141 C70.0625,204.9141 68.7656,203.8203 68.7656,202.1172 L68.7656,201.0234 C68.7656,199.2422 70.0156,197.9297 71.75,197.9297 C72.3281,197.9297 72.9375,198.0859 73.4063,198.3359 C73.8906,198.6172 74.0625,198.8359 74.1563,199.2422 C74.2188,199.6484 74.25,199.7734 74.3906,199.8984 C74.5313,200.0391 74.7656,200.1484 74.9844,200.1484 C75.25,200.1484 75.5156,200.0078 75.6875,199.7891 C75.7969,199.6328 75.8281,199.4453 75.8281,199.0234 L75.8281,197.6016 C75.8281,197.1641 75.8125,197.0391 75.7188,196.8828 C75.5625,196.6172 75.2813,196.4766 74.9844,196.4766 C74.6875,196.4766 74.4844,196.5703 74.2656,196.8828 L74.0938,196.8047 Z " fill="#000000"/><text fill="#000000" font-family="sans-serif" font-size="12" font-style="italic" lengthAdjust="spacing" textLength="72" x="112.25" y="197.1387">«Controller»</text><text fill="#000000" font-family="sans-serif" font-size="14" lengthAdjust="spacing" textLength="112" x="92.25" y="212.9639">OrderMutations</text><line style="stroke:#181818;stroke-width:0.5;" x1="23.5" x2="240.5" y1="221.2656" y2="221.2656"/><line style="stroke:#181818;stroke-width:0.5;" x1="23.5" x2="240.5" y1="229.2656" y2="229.2656"/><ellipse cx="33.5" cy="240.2656" fill="#84BE84" rx="3" ry="3" style="stroke:#038048;stroke-width:1.0;"/><text fill="#000000" font-family="sans-serif" font-size="14" lengthAdjust="spacing" textLength="193" x="42.5" y="246.2607">Order updateOrderStatus()</text></g><!--MD5=[847b01141f2e3c87c6d91f2fd57e99f4]
class Review.Review--><g id="elem_Review.Review"><rect codeLine="50" fill="#F1F1F1" height="170.3438" id="Review.Review" rx="2.5" ry="2.5" style="stroke:#181818;stroke-width:0.5;" width="148" x="743" y="420.5"/><ellipse cx="787.25" cy="440.6328" fill="#ADD1B2" rx="11" ry="11" style="stroke:#181818;stroke-width:1.0;"/><path d="M789.5938,436.3047 C788.6563,435.8672 788.0625,435.7266 787.1875,435.7266 C784.5625,435.7266 782.5625,437.8047 782.5625,440.5234 L782.5625,441.6484 C782.5625,444.2266 784.6719,446.1172 787.5625,446.1172 C788.7813,446.1172 789.9375,445.8203 790.6875,445.2734 C791.2656,444.8672 791.5938,444.4141 791.5938,444.0234 C791.5938,443.5703 791.2031,443.1797 790.7344,443.1797 C790.5156,443.1797 790.3125,443.2578 790.125,443.4453 C789.6719,443.9297 789.6719,443.9297 789.4844,444.0234 C789.0625,444.2891 788.375,444.4141 787.6094,444.4141 C785.5625,444.4141 784.2656,443.3203 784.2656,441.6172 L784.2656,440.5234 C784.2656,438.7422 785.5156,437.4297 787.25,437.4297 C787.8281,437.4297 788.4375,437.5859 788.9063,437.8359 C789.3906,438.1172 789.5625,438.3359 789.6563,438.7422 C789.7188,439.1484 789.75,439.2734 789.8906,439.3984 C790.0313,439.5391 790.2656,439.6484 790.4844,439.6484 C790.75,439.6484 791.0156,439.5078 791.1875,439.2891 C791.2969,439.1328 791.3281,438.9453 791.3281,438.5234 L791.3281,437.1016 C791.3281,436.6641 791.3125,436.5391 791.2188,436.3828 C791.0625,436.1172 790.7813,435.9766 790.4844,435.9766 C790.1875,435.9766 789.9844,436.0703 789.7656,436.3828 L789.5938,436.3047 Z " fill="#000000"/><text fill="#000000" font-family="sans-serif" font-size="12" font-style="italic" lengthAdjust="spacing" textLength="50" x="808.25" y="436.6387">«Entity»</text><text fill="#000000" font-family="sans-serif" font-size="14" lengthAdjust="spacing" textLength="51" x="807.75" y="452.4639">Review</text><line style="stroke:#181818;stroke-width:0.5;" x1="744" x2="890" y1="460.7656" y2="460.7656"/><ellipse cx="754" cy="471.7656" fill="none" rx="3" ry="3" style="stroke:#038048;stroke-width:1.0;"/><text fill="#000000" font-family="sans-serif" font-size="14" lengthAdjust="spacing" textLength="78" x="763" y="477.7607">id: number</text><ellipse cx="754" cy="488.0625" fill="none" rx="3" ry="3" style="stroke:#038048;stroke-width:1.0;"/><text fill="#000000" font-family="sans-serif" font-size="14" lengthAdjust="spacing" textLength="81" x="763" y="494.0576">shop: Shop</text><ellipse cx="754" cy="504.3594" fill="none" rx="3" ry="3" style="stroke:#038048;stroke-width:1.0;"/><text fill="#000000" font-family="sans-serif" font-size="14" lengthAdjust="spacing" textLength="70" x="763" y="510.3545">user: User</text><ellipse cx="754" cy="520.6563" fill="none" rx="3" ry="3" style="stroke:#038048;stroke-width:1.0;"/><text fill="#000000" font-family="sans-serif" font-size="14" lengthAdjust="spacing" textLength="122" x="763" y="526.6514">product: Product</text><ellipse cx="754" cy="536.9531" fill="none" rx="3" ry="3" style="stroke:#038048;stroke-width:1.0;"/><text fill="#000000" font-family="sans-serif" font-size="14" lengthAdjust="spacing" textLength="86" x="763" y="542.9482">rating: float</text><ellipse cx="754" cy="553.25" fill="none" rx="3" ry="3" style="stroke:#038048;stroke-width:1.0;"/><text fill="#000000" font-family="sans-serif" font-size="14" lengthAdjust="spacing" textLength="82" x="763" y="559.2451">title: string</text><ellipse cx="754" cy="569.5469" fill="none" rx="3" ry="3" style="stroke:#038048;stroke-width:1.0;"/><text fill="#000000" font-family="sans-serif" font-size="14" lengthAdjust="spacing" textLength="121" x="763" y="575.542">comment: string</text><line style="stroke:#181818;stroke-width:0.5;" x1="744" x2="890" y1="582.8438" y2="582.8438"/></g><!--MD5=[3f35574efa1b6bb62e5c7f4d1db32999]
class Review.ReviewQueries--><g id="elem_Review.ReviewQueries"><rect codeLine="60" fill="#F1F1F1" height="88.8594" id="Review.ReviewQueries" rx="2.5" ry="2.5" style="stroke:#181818;stroke-width:0.5;" width="199" x="858.5" y="173"/><ellipse cx="901.4" cy="193.1328" fill="#ADD1B2" rx="11" ry="11" style="stroke:#181818;stroke-width:1.0;"/><path d="M903.7438,188.8047 C902.8063,188.3672 902.2125,188.2266 901.3375,188.2266 C898.7125,188.2266 896.7125,190.3047 896.7125,193.0234 L896.7125,194.1484 C896.7125,196.7266 898.8219,198.6172 901.7125,198.6172 C902.9313,198.6172 904.0875,198.3203 904.8375,197.7734 C905.4156,197.3672 905.7438,196.9141 905.7438,196.5234 C905.7438,196.0703 905.3531,195.6797 904.8844,195.6797 C904.6656,195.6797 904.4625,195.7578 904.275,195.9453 C903.8219,196.4297 903.8219,196.4297 903.6344,196.5234 C903.2125,196.7891 902.525,196.9141 901.7594,196.9141 C899.7125,196.9141 898.4156,195.8203 898.4156,194.1172 L898.4156,193.0234 C898.4156,191.2422 899.6656,189.9297 901.4,189.9297 C901.9781,189.9297 902.5875,190.0859 903.0563,190.3359 C903.5406,190.6172 903.7125,190.8359 903.8063,191.2422 C903.8688,191.6484 903.9,191.7734 904.0406,191.8984 C904.1813,192.0391 904.4156,192.1484 904.6344,192.1484 C904.9,192.1484 905.1656,192.0078 905.3375,191.7891 C905.4469,191.6328 905.4781,191.4453 905.4781,191.0234 L905.4781,189.6016 C905.4781,189.1641 905.4625,189.0391 905.3688,188.8828 C905.2125,188.6172 904.9313,188.4766 904.6344,188.4766 C904.3375,188.4766 904.1344,188.5703 903.9156,188.8828 L903.7438,188.8047 Z " fill="#000000"/><text fill="#000000" font-family="sans-serif" font-size="12" font-style="italic" lengthAdjust="spacing" textLength="72" x="938.1" y="189.1387">«Controller»</text><text fill="#000000" font-family="sans-serif" font-size="14" lengthAdjust="spacing" textLength="105" x="921.6" y="204.9639">ReviewQueries</text><line style="stroke:#181818;stroke-width:0.5;" x1="859.5" x2="1056.5" y1="213.2656" y2="213.2656"/><line style="stroke:#181818;stroke-width:0.5;" x1="859.5" x2="1056.5" y1="221.2656" y2="221.2656"/><ellipse cx="869.5" cy="232.2656" fill="#84BE84" rx="3" ry="3" style="stroke:#038048;stroke-width:1.0;"/><text fill="#000000" font-family="sans-serif" font-size="14" lengthAdjust="spacing" textLength="173" x="878.5" y="238.2607">(double, int) getRating()</text><ellipse cx="869.5" cy="248.5625" fill="#84BE84" rx="3" ry="3" style="stroke:#038048;stroke-width:1.0;"/><text fill="#000000" font-family="sans-serif" font-size="14" lengthAdjust="spacing" textLength="158" x="878.5" y="254.5576">Review[] getReviews()</text></g><!--MD5=[b31decad8869bd762a4b9b75b4cd4202]
class Review.ReviewMutations--><g id="elem_Review.ReviewMutations"><rect codeLine="65" fill="#F1F1F1" height="72.5625" id="Review.ReviewMutations" rx="2.5" ry="2.5" style="stroke:#181818;stroke-width:0.5;" width="179" x="644.5" y="181"/><ellipse cx="670.75" cy="201.1328" fill="#ADD1B2" rx="11" ry="11" style="stroke:#181818;stroke-width:1.0;"/><path d="M673.0938,196.8047 C672.1563,196.3672 671.5625,196.2266 670.6875,196.2266 C668.0625,196.2266 666.0625,198.3047 666.0625,201.0234 L666.0625,202.1484 C666.0625,204.7266 668.1719,206.6172 671.0625,206.6172 C672.2813,206.6172 673.4375,206.3203 674.1875,205.7734 C674.7656,205.3672 675.0938,204.9141 675.0938,204.5234 C675.0938,204.0703 674.7031,203.6797 674.2344,203.6797 C674.0156,203.6797 673.8125,203.7578 673.625,203.9453 C673.1719,204.4297 673.1719,204.4297 672.9844,204.5234 C672.5625,204.7891 671.875,204.9141 671.1094,204.9141 C669.0625,204.9141 667.7656,203.8203 667.7656,202.1172 L667.7656,201.0234 C667.7656,199.2422 669.0156,197.9297 670.75,197.9297 C671.3281,197.9297 671.9375,198.0859 672.4063,198.3359 C672.8906,198.6172 673.0625,198.8359 673.1563,199.2422 C673.2188,199.6484 673.25,199.7734 673.3906,199.8984 C673.5313,200.0391 673.7656,200.1484 673.9844,200.1484 C674.25,200.1484 674.5156,200.0078 674.6875,199.7891 C674.7969,199.6328 674.8281,199.4453 674.8281,199.0234 L674.8281,197.6016 C674.8281,197.1641 674.8125,197.0391 674.7188,196.8828 C674.5625,196.6172 674.2813,196.4766 673.9844,196.4766 C673.6875,196.4766 673.4844,196.5703 673.2656,196.8828 L673.0938,196.8047 Z " fill="#000000"/><text fill="#000000" font-family="sans-serif" font-size="12" font-style="italic" lengthAdjust="spacing" textLength="72" x="712.25" y="197.1387">«Controller»</text><text fill="#000000" font-family="sans-serif" font-size="14" lengthAdjust="spacing" textLength="122" x="687.25" y="212.9639">ReviewMutations</text><line style="stroke:#181818;stroke-width:0.5;" x1="645.5" x2="822.5" y1="221.2656" y2="221.2656"/><line style="stroke:#181818;stroke-width:0.5;" x1="645.5" x2="822.5" y1="229.2656" y2="229.2656"/><ellipse cx="655.5" cy="240.2656" fill="#84BE84" rx="3" ry="3" style="stroke:#038048;stroke-width:1.0;"/><text fill="#000000" font-family="sans-serif" font-size="14" lengthAdjust="spacing" textLength="153" x="664.5" y="246.2607">Review writeReview()</text></g><!--MD5=[b03d4ea85b5316bc64c214d18415a834]
class ProductDetailPage--><g id="elem_ProductDetailPage"><rect codeLine="75" fill="#F1F1F1" height="56.2656" id="ProductDetailPage" rx="2.5" ry="2.5" style="stroke:#181818;stroke-width:0.5;" width="166" x="868" y="7"/><ellipse cx="883" cy="27.1328" fill="#ADD1B2" rx="11" ry="11" style="stroke:#181818;stroke-width:1.0;"/><path d="M885.3438,22.8047 C884.4063,22.3672 883.8125,22.2266 882.9375,22.2266 C880.3125,22.2266 878.3125,24.3047 878.3125,27.0234 L878.3125,28.1484 C878.3125,30.7266 880.4219,32.6172 883.3125,32.6172 C884.5313,32.6172 885.6875,32.3203 886.4375,31.7734 C887.0156,31.3672 887.3438,30.9141 887.3438,30.5234 C887.3438,30.0703 886.9531,29.6797 886.4844,29.6797 C886.2656,29.6797 886.0625,29.7578 885.875,29.9453 C885.4219,30.4297 885.4219,30.4297 885.2344,30.5234 C884.8125,30.7891 884.125,30.9141 883.3594,30.9141 C881.3125,30.9141 880.0156,29.8203 880.0156,28.1172 L880.0156,27.0234 C880.0156,25.2422 881.2656,23.9297 883,23.9297 C883.5781,23.9297 884.1875,24.0859 884.6563,24.3359 C885.1406,24.6172 885.3125,24.8359 885.4063,25.2422 C885.4688,25.6484 885.5,25.7734 885.6406,25.8984 C885.7813,26.0391 886.0156,26.1484 886.2344,26.1484 C886.5,26.1484 886.7656,26.0078 886.9375,25.7891 C887.0469,25.6328 887.0781,25.4453 887.0781,25.0234 L887.0781,23.6016 C887.0781,23.1641 887.0625,23.0391 886.9688,22.8828 C886.8125,22.6172 886.5313,22.4766 886.2344,22.4766 C885.9375,22.4766 885.7344,22.5703 885.5156,22.8828 L885.3438,22.8047 Z " fill="#000000"/><text fill="#000000" font-family="sans-serif" font-size="12" font-style="italic" lengthAdjust="spacing" textLength="72" x="928" y="23.1387">«Boundary»</text><text fill="#000000" font-family="sans-serif" font-size="14" lengthAdjust="spacing" textLength="134" x="897" y="38.9639">ProductDetailPage</text><line style="stroke:#181818;stroke-width:0.5;" x1="869" x2="1033" y1="47.2656" y2="47.2656"/><line style="stroke:#181818;stroke-width:0.5;" x1="869" x2="1033" y1="55.2656" y2="55.2656"/></g><!--MD5=[296527245c86588be280a5ca8b927455]
class ShopProfilePage--><g id="elem_ShopProfilePage"><rect codeLine="76" fill="#F1F1F1" height="56.2656" id="ShopProfilePage" rx="2.5" ry="2.5" style="stroke:#181818;stroke-width:0.5;" width="151" x="1069.5" y="7"/><ellipse cx="1084.5" cy="27.1328" fill="#ADD1B2" rx="11" ry="11" style="stroke:#181818;stroke-width:1.0;"/><path d="M1086.8438,22.8047 C1085.9063,22.3672 1085.3125,22.2266 1084.4375,22.2266 C1081.8125,22.2266 1079.8125,24.3047 1079.8125,27.0234 L1079.8125,28.1484 C1079.8125,30.7266 1081.9219,32.6172 1084.8125,32.6172 C1086.0313,32.6172 1087.1875,32.3203 1087.9375,31.7734 C1088.5156,31.3672 1088.8438,30.9141 1088.8438,30.5234 C1088.8438,30.0703 1088.4531,29.6797 1087.9844,29.6797 C1087.7656,29.6797 1087.5625,29.7578 1087.375,29.9453 C1086.9219,30.4297 1086.9219,30.4297 1086.7344,30.5234 C1086.3125,30.7891 1085.625,30.9141 1084.8594,30.9141 C1082.8125,30.9141 1081.5156,29.8203 1081.5156,28.1172 L1081.5156,27.0234 C1081.5156,25.2422 1082.7656,23.9297 1084.5,23.9297 C1085.0781,23.9297 1085.6875,24.0859 1086.1563,24.3359 C1086.6406,24.6172 1086.8125,24.8359 1086.9063,25.2422 C1086.9688,25.6484 1087,25.7734 1087.1406,25.8984 C1087.2813,26.0391 1087.5156,26.1484 1087.7344,26.1484 C1088,26.1484 1088.2656,26.0078 1088.4375,25.7891 C1088.5469,25.6328 1088.5781,25.4453 1088.5781,25.0234 L1088.5781,23.6016 C1088.5781,23.1641 1088.5625,23.0391 1088.4688,22.8828 C1088.3125,22.6172 1088.0313,22.4766 1087.7344,22.4766 C1087.4375,22.4766 1087.2344,22.5703 1087.0156,22.8828 L1086.8438,22.8047 Z " fill="#000000"/><text fill="#000000" font-family="sans-serif" font-size="12" font-style="italic" lengthAdjust="spacing" textLength="72" x="1122" y="23.1387">«Boundary»</text><text fill="#000000" font-family="sans-serif" font-size="14" lengthAdjust="spacing" textLength="119" x="1098.5" y="38.9639">ShopProfilePage</text><line style="stroke:#181818;stroke-width:0.5;" x1="1070.5" x2="1219.5" y1="47.2656" y2="47.2656"/><line style="stroke:#181818;stroke-width:0.5;" x1="1070.5" x2="1219.5" y1="55.2656" y2="55.2656"/></g><!--MD5=[8fc13f04bad496b578bcfe7170c6f8d6]
class WriteReviewPage--><g id="elem_WriteReviewPage"><rect codeLine="77" fill="#F1F1F1" height="56.2656" id="WriteReviewPage" rx="2.5" ry="2.5" style="stroke:#181818;stroke-width:0.5;" width="158" x="668" y="7"/><ellipse cx="683" cy="27.1328" fill="#ADD1B2" rx="11" ry="11" style="stroke:#181818;stroke-width:1.0;"/><path d="M685.3438,22.8047 C684.4063,22.3672 683.8125,22.2266 682.9375,22.2266 C680.3125,22.2266 678.3125,24.3047 678.3125,27.0234 L678.3125,28.1484 C678.3125,30.7266 680.4219,32.6172 683.3125,32.6172 C684.5313,32.6172 685.6875,32.3203 686.4375,31.7734 C687.0156,31.3672 687.3438,30.9141 687.3438,30.5234 C687.3438,30.0703 686.9531,29.6797 686.4844,29.6797 C686.2656,29.6797 686.0625,29.7578 685.875,29.9453 C685.4219,30.4297 685.4219,30.4297 685.2344,30.5234 C684.8125,30.7891 684.125,30.9141 683.3594,30.9141 C681.3125,30.9141 680.0156,29.8203 680.0156,28.1172 L680.0156,27.0234 C680.0156,25.2422 681.2656,23.9297 683,23.9297 C683.5781,23.9297 684.1875,24.0859 684.6563,24.3359 C685.1406,24.6172 685.3125,24.8359 685.4063,25.2422 C685.4688,25.6484 685.5,25.7734 685.6406,25.8984 C685.7813,26.0391 686.0156,26.1484 686.2344,26.1484 C686.5,26.1484 686.7656,26.0078 686.9375,25.7891 C687.0469,25.6328 687.0781,25.4453 687.0781,25.0234 L687.0781,23.6016 C687.0781,23.1641 687.0625,23.0391 686.9688,22.8828 C686.8125,22.6172 686.5313,22.4766 686.2344,22.4766 C685.9375,22.4766 685.7344,22.5703 685.5156,22.8828 L685.3438,22.8047 Z " fill="#000000"/><text fill="#000000" font-family="sans-serif" font-size="12" font-style="italic" lengthAdjust="spacing" textLength="72" x="724" y="23.1387">«Boundary»</text><text fill="#000000" font-family="sans-serif" font-size="14" lengthAdjust="spacing" textLength="126" x="697" y="38.9639">WriteReviewPage</text><line style="stroke:#181818;stroke-width:0.5;" x1="669" x2="825" y1="47.2656" y2="47.2656"/><line style="stroke:#181818;stroke-width:0.5;" x1="669" x2="825" y1="55.2656" y2="55.2656"/></g><!--MD5=[31c1dcb96323399c92e3daddc9b5c3bf]
class ShopOrderDetailPage--><g id="elem_ShopOrderDetailPage"><rect codeLine="78" fill="#F1F1F1" height="56.2656" id="ShopOrderDetailPage" rx="2.5" ry="2.5" style="stroke:#181818;stroke-width:0.5;" width="188" x="38" y="7"/><ellipse cx="53" cy="27.1328" fill="#ADD1B2" rx="11" ry="11" style="stroke:#181818;stroke-width:1.0;"/><path d="M55.3438,22.8047 C54.4063,22.3672 53.8125,22.2266 52.9375,22.2266 C50.3125,22.2266 48.3125,24.3047 48.3125,27.0234 L48.3125,28.1484 C48.3125,30.7266 50.4219,32.6172 53.3125,32.6172 C54.5313,32.6172 55.6875,32.3203 56.4375,31.7734 C57.0156,31.3672 57.3438,30.9141 57.3438,30.5234 C57.3438,30.0703 56.9531,29.6797 56.4844,29.6797 C56.2656,29.6797 56.0625,29.7578 55.875,29.9453 C55.4219,30.4297 55.4219,30.4297 55.2344,30.5234 C54.8125,30.7891 54.125,30.9141 53.3594,30.9141 C51.3125,30.9141 50.0156,29.8203 50.0156,28.1172 L50.0156,27.0234 C50.0156,25.2422 51.2656,23.9297 53,23.9297 C53.5781,23.9297 54.1875,24.0859 54.6563,24.3359 C55.1406,24.6172 55.3125,24.8359 55.4063,25.2422 C55.4688,25.6484 55.5,25.7734 55.6406,25.8984 C55.7813,26.0391 56.0156,26.1484 56.2344,26.1484 C56.5,26.1484 56.7656,26.0078 56.9375,25.7891 C57.0469,25.6328 57.0781,25.4453 57.0781,25.0234 L57.0781,23.6016 C57.0781,23.1641 57.0625,23.0391 56.9688,22.8828 C56.8125,22.6172 56.5313,22.4766 56.2344,22.4766 C55.9375,22.4766 55.7344,22.5703 55.5156,22.8828 L55.3438,22.8047 Z " fill="#000000"/><text fill="#000000" font-family="sans-serif" font-size="12" font-style="italic" lengthAdjust="spacing" textLength="72" x="109" y="23.1387">«Boundary»</text><text fill="#000000" font-family="sans-serif" font-size="14" lengthAdjust="spacing" textLength="156" x="67" y="38.9639">ShopOrderDetailPage</text><line style="stroke:#181818;stroke-width:0.5;" x1="39" x2="225" y1="47.2656" y2="47.2656"/><line style="stroke:#181818;stroke-width:0.5;" x1="39" x2="225" y1="55.2656" y2="55.2656"/></g><!--MD5=[e27e641d1213c84f977cf398cb94d5f6]
class ShopOrderListPage--><g id="elem_ShopOrderListPage"><rect codeLine="79" fill="#F1F1F1" height="56.2656" id="ShopOrderListPage" rx="2.5" ry="2.5" style="stroke:#181818;stroke-width:0.5;" width="171" x="461.5" y="7"/><ellipse cx="476.5" cy="27.1328" fill="#ADD1B2" rx="11" ry="11" style="stroke:#181818;stroke-width:1.0;"/><path d="M478.8438,22.8047 C477.9063,22.3672 477.3125,22.2266 476.4375,22.2266 C473.8125,22.2266 471.8125,24.3047 471.8125,27.0234 L471.8125,28.1484 C471.8125,30.7266 473.9219,32.6172 476.8125,32.6172 C478.0313,32.6172 479.1875,32.3203 479.9375,31.7734 C480.5156,31.3672 480.8438,30.9141 480.8438,30.5234 C480.8438,30.0703 480.4531,29.6797 479.9844,29.6797 C479.7656,29.6797 479.5625,29.7578 479.375,29.9453 C478.9219,30.4297 478.9219,30.4297 478.7344,30.5234 C478.3125,30.7891 477.625,30.9141 476.8594,30.9141 C474.8125,30.9141 473.5156,29.8203 473.5156,28.1172 L473.5156,27.0234 C473.5156,25.2422 474.7656,23.9297 476.5,23.9297 C477.0781,23.9297 477.6875,24.0859 478.1563,24.3359 C478.6406,24.6172 478.8125,24.8359 478.9063,25.2422 C478.9688,25.6484 479,25.7734 479.1406,25.8984 C479.2813,26.0391 479.5156,26.1484 479.7344,26.1484 C480,26.1484 480.2656,26.0078 480.4375,25.7891 C480.5469,25.6328 480.5781,25.4453 480.5781,25.0234 L480.5781,23.6016 C480.5781,23.1641 480.5625,23.0391 480.4688,22.8828 C480.3125,22.6172 480.0313,22.4766 479.7344,22.4766 C479.4375,22.4766 479.2344,22.5703 479.0156,22.8828 L478.8438,22.8047 Z " fill="#000000"/><text fill="#000000" font-family="sans-serif" font-size="12" font-style="italic" lengthAdjust="spacing" textLength="72" x="524" y="23.1387">«Boundary»</text><text fill="#000000" font-family="sans-serif" font-size="14" lengthAdjust="spacing" textLength="139" x="490.5" y="38.9639">ShopOrderListPage</text><line style="stroke:#181818;stroke-width:0.5;" x1="462.5" x2="631.5" y1="47.2656" y2="47.2656"/><line style="stroke:#181818;stroke-width:0.5;" x1="462.5" x2="631.5" y1="55.2656" y2="55.2656"/></g><!--MD5=[cb2f11e22914e7d3013d6d364496ce8f]
class UserOrderListPage--><g id="elem_UserOrderListPage"><rect codeLine="80" fill="#F1F1F1" height="56.2656" id="UserOrderListPage" rx="2.5" ry="2.5" style="stroke:#181818;stroke-width:0.5;" width="165" x="261.5" y="7"/><ellipse cx="276.5" cy="27.1328" fill="#ADD1B2" rx="11" ry="11" style="stroke:#181818;stroke-width:1.0;"/><path d="M278.8438,22.8047 C277.9063,22.3672 277.3125,22.2266 276.4375,22.2266 C273.8125,22.2266 271.8125,24.3047 271.8125,27.0234 L271.8125,28.1484 C271.8125,30.7266 273.9219,32.6172 276.8125,32.6172 C278.0313,32.6172 279.1875,32.3203 279.9375,31.7734 C280.5156,31.3672 280.8438,30.9141 280.8438,30.5234 C280.8438,30.0703 280.4531,29.6797 279.9844,29.6797 C279.7656,29.6797 279.5625,29.7578 279.375,29.9453 C278.9219,30.4297 278.9219,30.4297 278.7344,30.5234 C278.3125,30.7891 277.625,30.9141 276.8594,30.9141 C274.8125,30.9141 273.5156,29.8203 273.5156,28.1172 L273.5156,27.0234 C273.5156,25.2422 274.7656,23.9297 276.5,23.9297 C277.0781,23.9297 277.6875,24.0859 278.1563,24.3359 C278.6406,24.6172 278.8125,24.8359 278.9063,25.2422 C278.9688,25.6484 279,25.7734 279.1406,25.8984 C279.2813,26.0391 279.5156,26.1484 279.7344,26.1484 C280,26.1484 280.2656,26.0078 280.4375,25.7891 C280.5469,25.6328 280.5781,25.4453 280.5781,25.0234 L280.5781,23.6016 C280.5781,23.1641 280.5625,23.0391 280.4688,22.8828 C280.3125,22.6172 280.0313,22.4766 279.7344,22.4766 C279.4375,22.4766 279.2344,22.5703 279.0156,22.8828 L278.8438,22.8047 Z " fill="#000000"/><text fill="#000000" font-family="sans-serif" font-size="12" font-style="italic" lengthAdjust="spacing" textLength="72" x="321" y="23.1387">«Boundary»</text><text fill="#000000" font-family="sans-serif" font-size="14" lengthAdjust="spacing" textLength="133" x="290.5" y="38.9639">UserOrderListPage</text><line style="stroke:#181818;stroke-width:0.5;" x1="262.5" x2="425.5" y1="47.2656" y2="47.2656"/><line style="stroke:#181818;stroke-width:0.5;" x1="262.5" x2="425.5" y1="55.2656" y2="55.2656"/></g><!--MD5=[49d550efe9587281f85b8e77591f3096]
link Order.Order to Order.OrderItemSnapshot--><g id="link_Order.Order_Order.OrderItemSnapshot"><path codeLine="32" d="M368,656.124 C368,682.022 368,708.388 368,732.597 " fill="none" id="Order.Order-Order.OrderItemSnapshot" style="stroke:#181818;stroke-width:1.0;"/><polygon fill="#000000" points="373,699.5664,375.9389,690.5213,370.0611,690.5213,373,699.5664" style="stroke:#000000;stroke-width:1.0;"/><text fill="#000000" font-family="sans-serif" font-size="13" lengthAdjust="spacing" textLength="54" x="382" y="699.0669">contains</text><text fill="#000000" font-family="sans-serif" font-size="13" lengthAdjust="spacing" textLength="24" x="343.4188" y="675.8601">1..1</text><text fill="#000000" font-family="sans-serif" font-size="13" lengthAdjust="spacing" textLength="23" x="344.1914" y="721.9784">0..*</text></g><!--MD5=[87d9ada103bb9e660b8ab670429a5e00]
link Order.OrderQueries to Order.Order--><g id="link_Order.OrderQueries_Order.Order"><path codeLine="45" d="M375.124,278.107 C374.413,300.699 373.568,327.559 372.713,354.745 " fill="none" id="Order.OrderQueries-Order.Order" style="stroke:#181818;stroke-width:1.0;"/><polygon fill="#000000" points="379.8428,321.5639,383.0647,312.6157,377.1897,312.4309,379.8428,321.5639" style="stroke:#000000;stroke-width:1.0;"/><text fill="#000000" font-family="sans-serif" font-size="13" lengthAdjust="spacing" textLength="47" x="389" y="321.0669">queries</text><text fill="#000000" font-family="sans-serif" font-size="13" lengthAdjust="spacing" textLength="24" x="349.4329" y="298.4549">1..1</text><text fill="#000000" font-family="sans-serif" font-size="13" lengthAdjust="spacing" textLength="23" x="349.3843" y="344.1564">0..*</text></g><!--MD5=[32aac710090ed0686f9a8c75772a7a44]
link Order.OrderMutations to Order.Order--><g id="link_Order.OrderMutations_Order.Order"><path codeLine="46" d="M161.412,254.144 C186.001,283.942 222.685,328.397 258.346,371.614 " fill="none" id="Order.OrderMutations-Order.Order" style="stroke:#181818;stroke-width:1.0;"/><polygon fill="#000000" points="224.1823,320.4229,220.6922,311.5759,216.1586,315.3169,224.1823,320.4229" style="stroke:#000000;stroke-width:1.0;"/><text fill="#000000" font-family="sans-serif" font-size="13" lengthAdjust="spacing" textLength="54" x="230" y="321.0669">mutates</text><text fill="#000000" font-family="sans-serif" font-size="13" lengthAdjust="spacing" textLength="24" x="140.2959" y="273.5695">1..1</text><text fill="#000000" font-family="sans-serif" font-size="13" lengthAdjust="spacing" textLength="23" x="227.5846" y="359.6366">1..*</text></g><!--MD5=[edd59168d37e0c08e1367e2f24c9e129]
link Review.ReviewQueries to Review.Review--><g id="link_Review.ReviewQueries_Review.Review"><path codeLine="69" d="M936.432,262.249 C915.757,304.185 884.003,368.593 858.434,420.457 " fill="none" id="Review.ReviewQueries-Review.Review" style="stroke:#181818;stroke-width:1.0;"/><polygon fill="#000000" points="914.789,321.051,921.4247,314.2378,916.1527,311.6387,914.789,321.051" style="stroke:#000000;stroke-width:1.0;"/><text fill="#000000" font-family="sans-serif" font-size="13" lengthAdjust="spacing" textLength="47" x="926" y="321.0669">queries</text><text fill="#000000" font-family="sans-serif" font-size="13" lengthAdjust="spacing" textLength="24" x="907.5017" y="282.01">1..1</text><text fill="#000000" font-family="sans-serif" font-size="13" lengthAdjust="spacing" textLength="23" x="838.0065" y="409.5619">0..*</text></g><!--MD5=[fb06bb9173e7fa8b3efe27e0f4b8cb46]
link Review.ReviewMutations to Review.Review--><g id="link_Review.ReviewMutations_Review.Review"><path codeLine="70" d="M744.344,254.144 C756.338,295.472 776.514,364.994 792.565,420.304 " fill="none" id="Review.ReviewMutations-Review.Review" style="stroke:#181818;stroke-width:1.0;"/><polygon fill="#000000" points="770.3935,321.3683,770.6951,311.8625,765.0501,313.5007,770.3935,321.3683" style="stroke:#000000;stroke-width:1.0;"/><text fill="#000000" font-family="sans-serif" font-size="13" lengthAdjust="spacing" textLength="54" x="778" y="321.0669">mutates</text><text fill="#000000" font-family="sans-serif" font-size="13" lengthAdjust="spacing" textLength="24" x="720.0697" y="273.5695">1..1</text><text fill="#000000" font-family="sans-serif" font-size="13" lengthAdjust="spacing" textLength="23" x="766.4768" y="409.3958">1..*</text></g><!--MD5=[3560b5ae5384eb7e4ead7e85da31b45f]
link Review.ReviewMutations to Order.Order--><g id="link_Review.ReviewMutations_Order.Order"><path codeLine="71" d="M680.549,254.073 C657.046,270.1 629.315,289.539 605,308 C562.537,340.24 517.183,377.189 477.637,410.283 " fill="none" id="Review.ReviewMutations-Order.Order" style="stroke:#181818;stroke-width:1.0;"/><polygon fill="#000000" points="606.038,319.6165,614.9981,316.4276,611.4125,311.7701,606.038,319.6165" style="stroke:#000000;stroke-width:1.0;"/><text fill="#000000" font-family="sans-serif" font-size="13" lengthAdjust="spacing" textLength="133" x="619" y="321.0669">queries and mutates</text><text fill="#000000" font-family="sans-serif" font-size="13" lengthAdjust="spacing" textLength="24" x="645.2996" y="273.764">1..1</text><text fill="#000000" font-family="sans-serif" font-size="13" lengthAdjust="spacing" textLength="23" x="485.3973" y="400.7828">1..*</text></g><!--MD5=[b406d3d774f8323b3b38dec30e6235b8]
link ProductDetailPage to Review.ReviewQueries--><g id="link_ProductDetailPage_Review.ReviewQueries"><path codeLine="82" d="M952.048,63.023 C953.173,92.035 954.978,138.566 956.305,172.796 " fill="none" id="ProductDetailPage-Review.ReviewQueries" style="stroke:#181818;stroke-width:1.0;"/><polygon fill="#000000" points="958.1938,104.4962,960.78,95.3441,954.9065,95.5718,958.1938,104.4962" style="stroke:#000000;stroke-width:1.0;"/><text fill="#000000" font-family="sans-serif" font-size="13" lengthAdjust="spacing" textLength="23" x="926.631" y="83.2892">0..*</text><text fill="#000000" font-family="sans-serif" font-size="13" lengthAdjust="spacing" textLength="24" x="930.208" y="161.8901">1..1</text></g><!--MD5=[403335fa2c112db35087ec434c20c3cc]
link ShopProfilePage to Review.ReviewQueries--><g id="link_ShopProfilePage_Review.ReviewQueries"><path codeLine="83" d="M1117,63.023 C1086.95,92.035 1038.74,138.566 1003.28,172.796 " fill="none" id="ShopProfilePage-Review.ReviewQueries" style="stroke:#181818;stroke-width:1.0;"/><polygon fill="#000000" points="1085.4026,102.9726,1093.9515,98.8052,1089.8693,94.5761,1085.4026,102.9726" style="stroke:#000000;stroke-width:1.0;"/><text fill="#000000" font-family="sans-serif" font-size="13" lengthAdjust="spacing" textLength="23" x="1084.8656" y="83.2892">0..*</text><text fill="#000000" font-family="sans-serif" font-size="13" lengthAdjust="spacing" textLength="24" x="984.3737" y="161.8901">1..1</text></g><!--MD5=[b7d48ee2f0a911704814a1ad1f363f6c]
link WriteReviewPage to Review.ReviewMutations--><g id="link_WriteReviewPage_Review.ReviewMutations"><path codeLine="84" d="M745.054,63.023 C742.794,94.395 739.059,146.253 736.565,180.89 " fill="none" id="WriteReviewPage-Review.ReviewMutations" style="stroke:#181818;stroke-width:1.0;"/><polygon fill="#000000" points="747.6408,104.4871,751.2219,95.6765,745.3592,95.2542,747.6408,104.4871" style="stroke:#000000;stroke-width:1.0;"/><text fill="#000000" font-family="sans-serif" font-size="13" lengthAdjust="spacing" textLength="23" x="718.9446" y="83.2892">0..*</text><text fill="#000000" font-family="sans-serif" font-size="13" lengthAdjust="spacing" textLength="24" x="710.8254" y="169.8767">1..1</text></g><!--MD5=[22530c533f5da27f315acca9f357e36c]
link ShopOrderDetailPage to Order.OrderQueries--><g id="link_ShopOrderDetailPage_Order.OrderQueries"><path codeLine="86" d="M180.249,63.1 C204.496,77.345 233.966,95.632 259,114 C276.831,127.083 295.268,142.224 312.118,156.787 " fill="none" id="ShopOrderDetailPage-Order.OrderQueries" style="stroke:#181818;stroke-width:1.0;"/><polygon fill="#000000" points="255.076,102.3958,249.4045,94.7614,246.0003,99.553,255.076,102.3958" style="stroke:#000000;stroke-width:1.0;"/><text fill="#000000" font-family="sans-serif" font-size="13" lengthAdjust="spacing" textLength="23" x="165.7472" y="83.384">0..*</text><text fill="#000000" font-family="sans-serif" font-size="13" lengthAdjust="spacing" textLength="24" x="279.2285" y="145.9482">1..1</text></g><!--MD5=[f1bc017da5bcd03141b0b14cbd94a72d]
link ShopOrderListPage to Order.OrderQueries--><g id="link_ShopOrderListPage_Order.OrderQueries"><path codeLine="87" d="M521.549,63.023 C498.3,87.708 463.107,125.075 433.267,156.757 " fill="none" id="ShopOrderListPage-Order.OrderQueries" style="stroke:#181818;stroke-width:1.0;"/><polygon fill="#000000" points="494.5719,103.1398,502.9128,98.5703,498.634,94.5404,494.5719,103.1398" style="stroke:#000000;stroke-width:1.0;"/><text fill="#000000" font-family="sans-serif" font-size="13" lengthAdjust="spacing" textLength="23" x="490.0041" y="83.2892">0..*</text><text fill="#000000" font-family="sans-serif" font-size="13" lengthAdjust="spacing" textLength="24" x="414.3854" y="145.9148">1..1</text></g><!--MD5=[02bd4561172999e29fb87a426d4ed97d]
link UserOrderListPage to Order.OrderQueries--><g id="link_UserOrderListPage_Order.OrderQueries"><path codeLine="88" d="M348.94,63.023 C353.453,87.708 360.285,125.075 366.078,156.757 " fill="none" id="UserOrderListPage-Order.OrderQueries" style="stroke:#181818;stroke-width:1.0;"/><polygon fill="#000000" points="362.8993,104.4185,364.1635,94.9923,358.3815,96.0495,362.8993,104.4185" style="stroke:#000000;stroke-width:1.0;"/><text fill="#000000" font-family="sans-serif" font-size="13" lengthAdjust="spacing" textLength="23" x="324.423" y="83.2892">0..*</text><text fill="#000000" font-family="sans-serif" font-size="13" lengthAdjust="spacing" textLength="24" x="339.4276" y="145.9148">1..1</text></g><!--MD5=[5240a521b76eabef15f27e5e5e203035]
link ShopOrderDetailPage to Order.OrderMutations--><g id="link_ShopOrderDetailPage_Order.OrderMutations"><path codeLine="89" d="M132,63.023 C132,94.395 132,146.253 132,180.89 " fill="none" id="ShopOrderDetailPage-Order.OrderMutations" style="stroke:#181818;stroke-width:1.0;"/><polygon fill="#000000" points="137,104.5,139.9389,95.4549,134.0611,95.4549,137,104.5" style="stroke:#000000;stroke-width:1.0;"/><text fill="#000000" font-family="sans-serif" font-size="13" lengthAdjust="spacing" textLength="23" x="106.3406" y="83.2892">0..*</text><text fill="#000000" font-family="sans-serif" font-size="13" lengthAdjust="spacing" textLength="24" x="105.7875" y="169.8767">1..1</text></g><!--MD5=[0784c44d691b66366ccc22f54ca2b504]
@startuml
namespace Order {
  class Order <<Entity>> {
    + id: number
    + owner: User
    + shop: Shop

    + status: OrderStatus
    + totalPrice: number
    + chargeId: string
    + items: OrderItemSnapshot

    + address: string
    + addressNote: string
    + receiverName: string
    + receiverPhoneNo: string

    + transaction: Transaction[]
  }

  class OrderItemSnapshot <<Entity>> {
    + id: number
    + order: Order
    + product: Product

    + name: string
    + description: string
    + price: float
    + soldPrice: float
    + images: string[]
  }

  Order "1..1" - - "0..*" OrderItemSnapshot: contains >

  class OrderQueries <<Controller>> {
    + int countSoldOrders()
    + Order getOrder()
    + Order[] getOrders()
    + Order[] getShopOrders()
  }

  class OrderMutations <<Controller>> {
    + Order updateOrderStatus()
  }

  OrderQueries "1..1" - - "0..*" Order: queries >
  OrderMutations "1..1" - - "1..*" Order: mutates >
}

namespace Review {
  class Review <<Entity>> {
    + id: number
    + shop: Shop
    + user: User
    + product: Product
    + rating: float
    + title: string
    + comment: string
  }

  class ReviewQueries <<Controller>> {
    + (double, int) getRating()
    + Review[] getReviews()
  }

  class ReviewMutations <<Controller>> {
    + Review writeReview()
  }

  ReviewQueries "1..1" - - "0..*" Review: queries >
  ReviewMutations "1..1" - - "1..*" Review: mutates >
  ReviewMutations "1..1" - - "1..*" Order.Order: queries and mutates >
}


class ProductDetailPage <<Boundary>> {}
class ShopProfilePage <<Boundary>> {}
class WriteReviewPage <<Boundary>> {}
class ShopOrderDetailPage <<Boundary>> {}
class ShopOrderListPage <<Boundary>> {}
class UserOrderListPage <<Boundary>> {}

ProductDetailPage "0..*" - - "1..1" Review.ReviewQueries: >
ShopProfilePage "0..*" - - "1..1" Review.ReviewQueries: >
WriteReviewPage "0..*" - - "1..1" Review.ReviewMutations: >

ShopOrderDetailPage "0..*" - - "1..1" Order.OrderQueries: >
ShopOrderListPage "0..*" - - "1..1" Order.OrderQueries: >
UserOrderListPage "0..*" - - "1..1" Order.OrderQueries: >
ShopOrderDetailPage "0..*" - - "1..1" Order.OrderMutations: >
@enduml

PlantUML version 1.2022.4beta2(Unknown compile time)
(GPL source distribution)
Java Runtime: Java(TM) SE Runtime Environment
JVM: Java HotSpot(TM) 64-Bit Server VM
Default Encoding: UTF-8
Language: en
Country: US
--></g></svg>