<?xml version="1.0" encoding="UTF-8" standalone="no"?><svg xmlns="http://www.w3.org/2000/svg" xmlns:xlink="http://www.w3.org/1999/xlink" contentStyleType="text/css" height="695px" preserveAspectRatio="none" style="width:839px;height:695px;background:#FFFFFF;" version="1.1" viewBox="0 0 839 695" width="839px" zoomAndPan="magnify"><defs/><g><!--MD5=[d4dc06348a8740885c5e7aba1249c05b]
cluster Railway--><g id="cluster_Railway"><polygon points="16,16,26,6,459,6,459,668,449,678,16,678,16,16" style="stroke:#181818;stroke-width:1.0;fill:none;"/><line style="stroke:#181818;stroke-width:1.0;fill:none;" x1="449" x2="459" y1="16" y2="6"/><line style="stroke:#181818;stroke-width:1.0;fill:none;" x1="16" x2="449" y1="16" y2="16"/><line style="stroke:#181818;stroke-width:1.0;fill:none;" x1="449" x2="449" y1="16" y2="678"/><text fill="#000000" font-family="sans-serif" font-size="14" font-style="italic" lengthAdjust="spacing" textLength="57" x="205" y="31.9951">«cloud»</text><text fill="#000000" font-family="sans-serif" font-size="14" font-weight="bold" lengthAdjust="spacing" textLength="63" x="202" y="48.292">Railway</text></g><!--MD5=[a6dd4715256a68aab250161522a92d59]
cluster mayday--><g id="cluster_mayday"><polygon points="40,80,50,70,435,70,435,644,425,654,40,654,40,80" style="stroke:#181818;stroke-width:1.0;fill:none;"/><line style="stroke:#181818;stroke-width:1.0;fill:none;" x1="425" x2="435" y1="80" y2="70"/><line style="stroke:#181818;stroke-width:1.0;fill:none;" x1="40" x2="425" y1="80" y2="80"/><line style="stroke:#181818;stroke-width:1.0;fill:none;" x1="425" x2="425" y1="80" y2="654"/><text fill="#000000" font-family="sans-serif" font-size="14" font-style="italic" lengthAdjust="spacing" textLength="68" x="199.5" y="95.9951">«project»</text><text fill="#000000" font-family="sans-serif" font-size="14" font-weight="bold" lengthAdjust="spacing" textLength="63" x="202" y="112.292">mayday</text></g><!--MD5=[48a5ee12ab4b38141bb2b62f2893d9fe]
cluster appContainer--><g id="cluster_appContainer"><polygon points="72,152,82,142,403,142,403,364,393,374,72,374,72,152" style="stroke:#181818;stroke-width:1.0;fill:none;"/><line style="stroke:#181818;stroke-width:1.0;fill:none;" x1="393" x2="403" y1="152" y2="142"/><line style="stroke:#181818;stroke-width:1.0;fill:none;" x1="72" x2="393" y1="152" y2="152"/><line style="stroke:#181818;stroke-width:1.0;fill:none;" x1="393" x2="393" y1="152" y2="374"/><text fill="#000000" font-family="sans-serif" font-size="14" font-style="italic" lengthAdjust="spacing" textLength="86" x="190.5" y="167.9951">«container»</text><text fill="#000000" font-family="sans-serif" font-size="14" font-weight="bold" lengthAdjust="spacing" textLength="30" x="218.5" y="184.292">app</text></g><!--MD5=[3cca84f111bad6deea36f310946c30e0]
cluster Node.js--><g id="cluster_Node.js"><polygon points="112,224,122,214,371,214,371,332,361,342,112,342,112,224" style="stroke:#181818;stroke-width:1.0;fill:none;"/><line style="stroke:#181818;stroke-width:1.0;fill:none;" x1="361" x2="371" y1="224" y2="214"/><line style="stroke:#181818;stroke-width:1.0;fill:none;" x1="112" x2="361" y1="224" y2="224"/><line style="stroke:#181818;stroke-width:1.0;fill:none;" x1="361" x2="361" y1="224" y2="342"/><text fill="#000000" font-family="sans-serif" font-size="14" font-style="italic" lengthAdjust="spacing" textLength="183" x="146" y="239.9951">«execution environment»</text><text fill="#000000" font-family="sans-serif" font-size="14" font-weight="bold" lengthAdjust="spacing" textLength="59" x="208" y="256.292">Node.js</text></g><!--MD5=[e8f3788ad7b97e8de68b4194558bc2a1]
cluster db--><g id="cluster_db"><polygon points="72,488,82,478,253,478,253,612,243,622,72,622,72,488" style="stroke:#181818;stroke-width:1.0;fill:none;"/><line style="stroke:#181818;stroke-width:1.0;fill:none;" x1="243" x2="253" y1="488" y2="478"/><line style="stroke:#181818;stroke-width:1.0;fill:none;" x1="72" x2="243" y1="488" y2="488"/><line style="stroke:#181818;stroke-width:1.0;fill:none;" x1="243" x2="243" y1="488" y2="622"/><text fill="#000000" font-family="sans-serif" font-size="14" font-style="italic" lengthAdjust="spacing" textLength="86" x="115.5" y="503.9951">«container»</text><text fill="#000000" font-family="sans-serif" font-size="14" font-weight="bold" lengthAdjust="spacing" textLength="20" x="148.5" y="520.292">db</text></g><!--MD5=[405d0ec63eaa964b5569457e2b7115d4]
cluster device--><g id="cluster_device"><polygon points="491,424,501,414,822,414,822,636,812,646,491,646,491,424" style="stroke:#181818;stroke-width:1.0;fill:none;"/><line style="stroke:#181818;stroke-width:1.0;fill:none;" x1="812" x2="822" y1="424" y2="414"/><line style="stroke:#181818;stroke-width:1.0;fill:none;" x1="491" x2="812" y1="424" y2="424"/><line style="stroke:#181818;stroke-width:1.0;fill:none;" x1="812" x2="812" y1="424" y2="646"/><text fill="#000000" font-family="sans-serif" font-size="14" font-style="italic" lengthAdjust="spacing" textLength="65" x="620" y="439.9951">«device»</text><text fill="#000000" font-family="sans-serif" font-size="14" font-weight="bold" lengthAdjust="spacing" textLength="105" x="600" y="456.292">User's device</text></g><!--MD5=[2de28e47f9582cb6df153deeec479525]
cluster browser--><g id="cluster_browser"><polygon points="531,496,541,486,790,486,790,604,780,614,531,614,531,496" style="stroke:#181818;stroke-width:1.0;fill:none;"/><line style="stroke:#181818;stroke-width:1.0;fill:none;" x1="780" x2="790" y1="496" y2="486"/><line style="stroke:#181818;stroke-width:1.0;fill:none;" x1="531" x2="780" y1="496" y2="496"/><line style="stroke:#181818;stroke-width:1.0;fill:none;" x1="780" x2="780" y1="496" y2="614"/><text fill="#000000" font-family="sans-serif" font-size="14" font-style="italic" lengthAdjust="spacing" textLength="183" x="565" y="511.9951">«execution environment»</text><text fill="#000000" font-family="sans-serif" font-size="14" font-weight="bold" lengthAdjust="spacing" textLength="65" x="624" y="528.292">browser</text></g><!--MD5=[0d85f722bc41d320047e768f9c23a1c5]
entity maydayApp--><g id="elem_maydayApp"><rect fill="#F1F1F1" height="55.5938" rx="2.5" ry="2.5" style="stroke:#181818;stroke-width:0.5;" width="166" x="158" y="270"/><polygon fill="#F1F1F1" points="307,275,307,289,319,289,319,281,313,275,307,275" style="stroke:#181818;stroke-width:0.5;"/><line style="stroke:#181818;stroke-width:0.5;" x1="313" x2="313" y1="275" y2="281"/><line style="stroke:#181818;stroke-width:0.5;" x1="319" x2="313" y1="281" y2="281"/><text fill="#000000" font-family="sans-serif" font-size="14" font-style="italic" lengthAdjust="spacing" textLength="69" x="201.5" y="295.9951">«artifact»</text><text fill="#000000" font-family="sans-serif" font-size="14" lengthAdjust="spacing" textLength="136" x="168" y="312.292">mayday app server</text></g><!--MD5=[89112a84c8daddb34abf4f068893e892]
entity PostgreSQL--><g id="elem_PostgreSQL"><rect fill="#F1F1F1" height="55.5938" rx="2.5" ry="2.5" style="stroke:#181818;stroke-width:0.5;" width="114" x="115" y="542"/><polygon fill="#F1F1F1" points="212,547,212,561,224,561,224,553,218,547,212,547" style="stroke:#181818;stroke-width:0.5;"/><line style="stroke:#181818;stroke-width:0.5;" x1="218" x2="218" y1="547" y2="553"/><line style="stroke:#181818;stroke-width:0.5;" x1="224" x2="218" y1="553" y2="553"/><text fill="#000000" font-family="sans-serif" font-size="14" font-style="italic" lengthAdjust="spacing" textLength="69" x="132.5" y="567.9951">«artifact»</text><text fill="#000000" font-family="sans-serif" font-size="14" lengthAdjust="spacing" textLength="84" x="125" y="584.292">PostgreSQL</text></g><!--MD5=[8ad49f0e5025f737f81281eb742a762f]
entity Frontend Assets--><g id="elem_Frontend Assets"><rect fill="#F1F1F1" height="55.5938" rx="2.5" ry="2.5" style="stroke:#181818;stroke-width:0.5;" width="147" x="586.5" y="542"/><polygon fill="#F1F1F1" points="716.5,547,716.5,561,728.5,561,728.5,553,722.5,547,716.5,547" style="stroke:#181818;stroke-width:0.5;"/><line style="stroke:#181818;stroke-width:0.5;" x1="722.5" x2="722.5" y1="547" y2="553"/><line style="stroke:#181818;stroke-width:0.5;" x1="728.5" x2="722.5" y1="553" y2="553"/><text fill="#000000" font-family="sans-serif" font-size="14" font-style="italic" lengthAdjust="spacing" textLength="69" x="620.5" y="567.9951">«artifact»</text><text fill="#000000" font-family="sans-serif" font-size="14" lengthAdjust="spacing" textLength="117" x="596.5" y="584.292">Frontend Assets</text></g><!--MD5=[26d6cc61e27b6041b7db695af9614f76]
link appContainer to db--><g id="link_appContainer_db"><path d="M80,375.0939 C80,375.5663 80,376.04 80,376.5148 C80,377.4644 80,378.4187 80,379.3774 C80,381.2949 80,383.23 80,385.1808 C80,400.7875 80,417.4001 80,434.0125 C80,442.3187 80,450.6248 80,458.8051 C80,462.8952 80,466.9539 80,470.9654 C80,472.9712 80,474.9651 80,476.9453 C80,477.1929 80,477.4402 80,477.6873 " fill="none" id="appContainer-db" style="stroke:#181818;stroke-width:1.0;"/></g><!--MD5=[4a638e6de8420c2aec39990382197764]
link appContainer to device--><g id="link_appContainer_device"><path d="M122.0407,374.0593 C122.1736,374.197 122.307,374.3343 122.4406,374.4713 C122.9751,375.0191 123.5149,375.5614 124.06,376.0977 C125.1501,377.1704 126.2613,378.2191 127.3935,379.2407 C131.9226,383.3274 136.7895,386.9811 142,390 C161.865,401.509 223.319,390.452 245,398 C308.257,420.0225 370.7765,461.791 417.9606,498.5331 C441.5527,516.9042 461.3109,534.0187 475.4105,546.78 C478.9355,549.9703 482.1067,552.8886 484.8958,555.4864 C486.2903,556.7853 487.5893,558.0041 488.7892,559.1367 C489.3891,559.703 489.9643,560.2478 490.5143,560.7703 C490.6517,560.9009 490.7877,561.0301 490.922,561.1579 " fill="none" id="appContainer-device" style="stroke:#181818;stroke-width:1.0;"/></g><!--MD5=[48941301d848cda66613780a074177a9]
@startuml
node Railway <<cloud>> {
  node mayday <<project>> {
    node app as appContainer <<container>> {
      node "Node.js" <<execution environment>>{
        artifact "mayday app server" as maydayApp <<artifact>>
      }
    }

    node db <<container>> {
      artifact PostgreSQL <<artifact>>
    }

    appContainer - - db
  }
}

node "User's device" <<device>> as device {
  node "browser" <<execution environment>> {
    artifact "Frontend Assets" <<artifact>>
  }
}

appContainer - - device
@enduml

PlantUML version 1.2022.4beta2(Unknown compile time)
(GPL source distribution)
Java Runtime: Java(TM) SE Runtime Environment
JVM: Java HotSpot(TM) 64-Bit Server VM
Default Encoding: UTF-8
Language: en
Country: US
--></g></svg>