<?xml version="1.0" encoding="UTF-8" standalone="no"?><svg xmlns="http://www.w3.org/2000/svg" xmlns:xlink="http://www.w3.org/1999/xlink" contentStyleType="text/css" height="821px" preserveAspectRatio="none" style="width:724px;height:821px;background:#FFFFFF;" version="1.1" viewBox="0 0 724 821" width="724px" zoomAndPan="magnify"><defs/><g><!--MD5=[d4dc06348a8740885c5e7aba1249c05b]
cluster Railway--><g id="cluster_Railway"><polygon points="16,280,26,270,405,270,405,794,395,804,16,804,16,280" style="stroke:#181818;stroke-width:1.0;fill:none;"/><line style="stroke:#181818;stroke-width:1.0;fill:none;" x1="395" x2="405" y1="280" y2="270"/><line style="stroke:#181818;stroke-width:1.0;fill:none;" x1="16" x2="395" y1="280" y2="280"/><line style="stroke:#181818;stroke-width:1.0;fill:none;" x1="395" x2="395" y1="280" y2="804"/><text fill="#000000" font-family="sans-serif" font-size="14" font-style="italic" lengthAdjust="spacing" textLength="56" x="178.5" y="295.9951">«cloud»</text><text fill="#000000" font-family="sans-serif" font-size="14" font-weight="bold" lengthAdjust="spacing" textLength="59" x="177" y="312.292">Railway</text></g><!--MD5=[48a5ee12ab4b38141bb2b62f2893d9fe]
cluster appContainer--><g id="cluster_appContainer"><polygon points="48,352,58,342,373,342,373,571,363,581,48,581,48,352" style="stroke:#181818;stroke-width:1.0;fill:none;"/><line style="stroke:#181818;stroke-width:1.0;fill:none;" x1="363" x2="373" y1="352" y2="342"/><line style="stroke:#181818;stroke-width:1.0;fill:none;" x1="48" x2="363" y1="352" y2="352"/><line style="stroke:#181818;stroke-width:1.0;fill:none;" x1="363" x2="363" y1="352" y2="581"/><text fill="#000000" font-family="sans-serif" font-size="14" font-style="italic" lengthAdjust="spacing" textLength="83" x="165" y="367.9951">«container»</text><text fill="#000000" font-family="sans-serif" font-size="14" font-weight="bold" lengthAdjust="spacing" textLength="95" x="159" y="384.292">mayday-app</text></g><!--MD5=[3cca84f111bad6deea36f310946c30e0]
cluster Node.js--><g id="cluster_Node.js"><polygon points="88,424,98,414,341,414,341,539,331,549,88,549,88,424" style="stroke:#181818;stroke-width:1.0;fill:none;"/><line style="stroke:#181818;stroke-width:1.0;fill:none;" x1="331" x2="341" y1="424" y2="414"/><line style="stroke:#181818;stroke-width:1.0;fill:none;" x1="88" x2="331" y1="424" y2="424"/><line style="stroke:#181818;stroke-width:1.0;fill:none;" x1="331" x2="331" y1="424" y2="549"/><text fill="#000000" font-family="sans-serif" font-size="14" font-style="italic" lengthAdjust="spacing" textLength="177" x="122" y="439.9951">«execution environment»</text><text fill="#000000" font-family="sans-serif" font-size="14" font-weight="bold" lengthAdjust="spacing" textLength="59" x="181" y="456.292">Node.js</text></g><!--MD5=[e8f3788ad7b97e8de68b4194558bc2a1]
cluster db--><g id="cluster_db"><polygon points="48,631,58,621,253,621,253,762,243,772,48,772,48,631" style="stroke:#181818;stroke-width:1.0;fill:none;"/><line style="stroke:#181818;stroke-width:1.0;fill:none;" x1="243" x2="253" y1="631" y2="621"/><line style="stroke:#181818;stroke-width:1.0;fill:none;" x1="48" x2="243" y1="631" y2="631"/><line style="stroke:#181818;stroke-width:1.0;fill:none;" x1="243" x2="243" y1="631" y2="772"/><text fill="#000000" font-family="sans-serif" font-size="14" font-style="italic" lengthAdjust="spacing" textLength="83" x="105" y="646.9951">«container»</text><text fill="#000000" font-family="sans-serif" font-size="14" font-weight="bold" lengthAdjust="spacing" textLength="86" x="103.5" y="663.292">mayday-db</text></g><!--MD5=[f688e6a077697fa04561d31ac66ed702]
cluster Google Cloud Platform--><g id="cluster_Google Cloud Platform"><polygon points="429,639,439,629,707,629,707,754,697,764,429,764,429,639" style="stroke:#181818;stroke-width:1.0;fill:none;"/><line style="stroke:#181818;stroke-width:1.0;fill:none;" x1="697" x2="707" y1="639" y2="629"/><line style="stroke:#181818;stroke-width:1.0;fill:none;" x1="429" x2="697" y1="639" y2="639"/><line style="stroke:#181818;stroke-width:1.0;fill:none;" x1="697" x2="697" y1="639" y2="764"/><text fill="#000000" font-family="sans-serif" font-size="14" font-style="italic" lengthAdjust="spacing" textLength="56" x="536" y="654.9951">«cloud»</text><text fill="#000000" font-family="sans-serif" font-size="14" font-weight="bold" lengthAdjust="spacing" textLength="177" x="475.5" y="671.292">Google Cloud Platform</text></g><!--MD5=[405d0ec63eaa964b5569457e2b7115d4]
cluster device--><g id="cluster_device"><polygon points="48,16,58,6,373,6,373,228,363,238,48,238,48,16" style="stroke:#181818;stroke-width:1.0;fill:none;"/><line style="stroke:#181818;stroke-width:1.0;fill:none;" x1="363" x2="373" y1="16" y2="6"/><line style="stroke:#181818;stroke-width:1.0;fill:none;" x1="48" x2="363" y1="16" y2="16"/><line style="stroke:#181818;stroke-width:1.0;fill:none;" x1="363" x2="363" y1="16" y2="238"/><text fill="#000000" font-family="sans-serif" font-size="14" font-style="italic" lengthAdjust="spacing" textLength="63" x="175" y="31.9951">«device»</text><text fill="#000000" font-family="sans-serif" font-size="14" font-weight="bold" lengthAdjust="spacing" textLength="107" x="153" y="48.292">User's device</text></g><!--MD5=[2de28e47f9582cb6df153deeec479525]
cluster browser--><g id="cluster_browser"><polygon points="88,88,98,78,341,78,341,196,331,206,88,206,88,88" style="stroke:#181818;stroke-width:1.0;fill:none;"/><line style="stroke:#181818;stroke-width:1.0;fill:none;" x1="331" x2="341" y1="88" y2="78"/><line style="stroke:#181818;stroke-width:1.0;fill:none;" x1="88" x2="331" y1="88" y2="88"/><line style="stroke:#181818;stroke-width:1.0;fill:none;" x1="331" x2="331" y1="88" y2="206"/><text fill="#000000" font-family="sans-serif" font-size="14" font-style="italic" lengthAdjust="spacing" textLength="177" x="122" y="103.9951">«execution environment»</text><text fill="#000000" font-family="sans-serif" font-size="14" font-weight="bold" lengthAdjust="spacing" textLength="67" x="177" y="120.292">browser</text></g><!--MD5=[0d85f722bc41d320047e768f9c23a1c5]
entity maydayApp--><g id="elem_maydayApp"><rect fill="#F1F1F1" height="62.5938" rx="2.5" ry="2.5" style="stroke:#181818;stroke-width:0.5;" width="169" x="129.5" y="470"/><rect fill="#F1F1F1" height="10" style="stroke:#181818;stroke-width:0.5;" width="15" x="278.5" y="475"/><rect fill="#F1F1F1" height="2" style="stroke:#181818;stroke-width:0.5;" width="4" x="276.5" y="477"/><rect fill="#F1F1F1" height="2" style="stroke:#181818;stroke-width:0.5;" width="4" x="276.5" y="481"/><text fill="#000000" font-family="sans-serif" font-size="14" font-style="italic" lengthAdjust="spacing" textLength="98" x="160" y="502.9951">«component»</text><text fill="#000000" font-family="sans-serif" font-size="14" lengthAdjust="spacing" textLength="129" x="144.5" y="519.292">mayday app server</text></g><!--MD5=[89112a84c8daddb34abf4f068893e892]
entity PostgreSQL--><g id="elem_PostgreSQL"><rect fill="#F1F1F1" height="62.5938" rx="2.5" ry="2.5" style="stroke:#181818;stroke-width:0.5;" width="138" x="91" y="685"/><rect fill="#F1F1F1" height="10" style="stroke:#181818;stroke-width:0.5;" width="15" x="209" y="690"/><rect fill="#F1F1F1" height="2" style="stroke:#181818;stroke-width:0.5;" width="4" x="207" y="692"/><rect fill="#F1F1F1" height="2" style="stroke:#181818;stroke-width:0.5;" width="4" x="207" y="696"/><text fill="#000000" font-family="sans-serif" font-size="14" font-style="italic" lengthAdjust="spacing" textLength="98" x="106" y="717.9951">«component»</text><text fill="#000000" font-family="sans-serif" font-size="14" lengthAdjust="spacing" textLength="81" x="114.5" y="734.292">PostgreSQL</text></g><!--MD5=[751647576a4a38dfde2198439870d4b2]
entity gcs--><g id="elem_gcs"><polygon fill="#F1F1F1" points="445.5,695,455.5,685,690.5,685,690.5,737.5938,680.5,747.5938,445.5,747.5938,445.5,695" style="stroke:#181818;stroke-width:0.5;"/><line style="stroke:#181818;stroke-width:0.5;" x1="680.5" x2="690.5" y1="695" y2="685"/><line style="stroke:#181818;stroke-width:0.5;" x1="445.5" x2="680.5" y1="695" y2="695"/><line style="stroke:#181818;stroke-width:0.5;" x1="680.5" x2="680.5" y1="695" y2="747.5938"/><text fill="#000000" font-family="sans-serif" font-size="14" font-style="italic" lengthAdjust="spacing" textLength="71" x="527.5" y="717.9951">«storage»</text><text fill="#000000" font-family="sans-serif" font-size="14" lengthAdjust="spacing" textLength="205" x="460.5" y="734.292">Google Cloud Storage Bucket</text></g><!--MD5=[8ad49f0e5025f737f81281eb742a762f]
entity Frontend Assets--><g id="elem_Frontend Assets"><rect fill="#F1F1F1" height="55.5938" rx="2.5" ry="2.5" style="stroke:#181818;stroke-width:0.5;" width="144" x="142" y="134"/><polygon fill="#F1F1F1" points="269,139,269,153,281,153,281,145,275,139,269,139" style="stroke:#181818;stroke-width:0.5;"/><line style="stroke:#181818;stroke-width:0.5;" x1="275" x2="275" y1="139" y2="145"/><line style="stroke:#181818;stroke-width:0.5;" x1="281" x2="275" y1="145" y2="145"/><text fill="#000000" font-family="sans-serif" font-size="14" font-style="italic" lengthAdjust="spacing" textLength="64" x="177" y="159.9951">«artifact»</text><text fill="#000000" font-family="sans-serif" font-size="14" lengthAdjust="spacing" textLength="114" x="152" y="176.292">Frontend Assets</text></g><!--MD5=[26d6cc61e27b6041b7db695af9614f76]
link appContainer to db--><g id="link_appContainer_db"><path d="M56,581.5018 C56,581.8927 56,582.2842 56,582.6761 C56,583.4601 56,584.2461 56,585.0339 C56,586.6096 56,588.1926 56,589.7815 C56,596.1373 56,602.5875 56,609.0375 C56,612.2625 56,615.4875 56,618.7005 C56,619.1022 56,619.5036 56,619.9048 C56,620.1055 56,620.306 56,620.5065 " fill="none" id="appContainer-db" style="stroke:#181818;stroke-width:1.0;"/></g><!--MD5=[c6b667e915966e478b2d4fb128849a06]
link device to appContainer--><g id="link_device_appContainer"><path d="M56,239.2219 C56,240.3279 56,241.4415 56,242.5626 C56,251.5308 56,260.9707 56,270.725 C56,290.2334 56,310.9994 56,331.765 C56,334.3607 56,336.9564 56,339.5496 C56,340.1979 56,340.8461 56,341.4941 " fill="none" id="device-appContainer" style="stroke:#181818;stroke-width:1.0;"/></g><!--MD5=[aa5f246d2c85fe6c8252a60f2e6ce816]
link appContainer to gcs--><g id="link_appContainer_gcs"><path d="M95.1675,581.3382 C95.2974,581.4795 95.4276,581.6205 95.5583,581.761 C95.8195,582.0422 96.0822,582.3218 96.3464,582.5999 C97.4031,583.7122 98.4834,584.7996 99.5875,585.8586 C104.0038,590.0948 108.8013,593.8788 114,597 C139.01,612.01 216.39,599.34 245,605 C334.1,622.63 432.27,658.75 496.73,684.91 " fill="none" id="appContainer-gcs" style="stroke:#181818;stroke-width:1.0;"/></g><!--MD5=[faab41c522cfc31582dbeeefd791bb7f]
@startuml Deployment Diagram

node Railway <<cloud>> {
  node "mayday-app" as appContainer <<container>> {
    node "Node.js" <<execution environment>>{
      component "mayday app server" as maydayApp <<component>>
    }
  }

  node "mayday-db" as db <<container>> {
    component PostgreSQL <<component>>
  }

  appContainer - - db
}

node "Google Cloud Platform" <<cloud>> {
  node "Google Cloud Storage Bucket" as gcs <<storage>>
}

node "User's device" <<device>> as device {
  node "browser" <<execution environment>> {
    artifact "Frontend Assets" <<artifact>>
  }
}

device - - appContainer
appContainer - - gcs

@enduml

PlantUML version 1.2022.3(Tue Mar 29 16:10:57 UTC 2022)
(GPL source distribution)
Java Runtime: OpenJDK Runtime Environment
JVM: OpenJDK 64-Bit Server VM
Default Encoding: UTF-8
Language: en
Country: null
--></g></svg>